<?xml version="1.0" encoding="UTF-8"?>
<svg version="1.1" xmlns="http://www.w3.org/2000/svg" width="867" height="288">
<path d="M0 0 C1.31790024 -0.00043808 2.63580048 -0.00087616 3.99363708 -0.00132751 C7.58614871 -0.00218398 11.17835639 0.01538461 14.77079773 0.03639436 C18.53305497 0.05521985 22.29532011 0.05691621 26.05761719 0.06047058 C33.17248538 0.06977388 40.28721436 0.09436424 47.40202141 0.12451905 C55.50602338 0.15811667 63.61003219 0.17456251 71.71408653 0.18960536 C88.37587861 0.22091547 105.03753088 0.27364234 121.69921875 0.34057617 C121.55118127 2.09378989 121.39989687 3.84672963 121.24725342 5.59954834 C121.16335735 6.57574505 121.07946129 7.55194176 120.99302292 8.55772018 C120.62718258 12.02288875 119.90434382 15.29817659 119.02734375 18.66870117 C118.86304871 19.30563904 118.69875366 19.9425769 118.52947998 20.59881592 C118.18394642 21.93064557 117.834264 23.26140563 117.48046875 24.59106445 C116.95431578 26.57139204 116.44292311 28.55508196 115.93359375 30.53979492 C114.1796352 37.29610846 112.26145783 43.99299549 110.12109375 50.63745117 C109.73018555 51.85271484 109.33927734 53.06797852 108.93652344 54.32006836 C107.10243521 58.79744395 107.10243521 58.79744395 104.69921875 60.34057617 C101.99365234 60.75708008 101.99365234 60.75708008 98.59765625 60.81713867 C97.63716621 60.83976021 97.63716621 60.83976021 96.65727234 60.86283875 C95.22893126 60.89400701 93.80042291 60.91806961 92.37185669 60.93618774 C90.02275038 60.96623449 87.67463282 61.01534982 85.32592773 61.06787109 C76.12309272 61.25995123 66.91942276 61.35271568 57.71497345 61.42483139 C51.92335882 61.47038917 46.13191556 61.52778407 40.34046173 61.59044266 C35.9904391 61.63598793 31.64080789 61.66274499 27.29057217 61.67554379 C24.5148442 61.68768659 21.73943661 61.7161929 18.96387672 61.74845314 C17.05938082 61.76567901 15.15473924 61.76344914 13.25016785 61.76042175 C1.49844991 61.92487281 -8.86490861 65.29481845 -19.77734375 69.40698242 C-22.79898941 70.52489777 -25.85597476 71.49566518 -28.9375 72.43432617 C-39.11570518 76.33737345 -47.60541574 82.91260417 -56.30078125 89.34057617 C-57.19667969 89.98897461 -58.09257813 90.63737305 -59.015625 91.30541992 C-66.18742869 97.02470641 -70.61725186 105.04729547 -75.3203125 112.79345703 C-76.30078125 114.34057617 -76.30078125 114.34057617 -77.30078125 115.34057617 C-40.34078125 115.67057617 -3.38078125 116.00057617 34.69921875 116.34057617 C33.57458731 129.8361534 33.57458731 129.8361534 32.140625 135.94213867 C31.99141098 136.58951996 31.84219696 137.23690125 31.6884613 137.90390015 C31.22073239 139.92638713 30.74177385 141.94598363 30.26171875 143.96557617 C29.78905925 145.98717167 29.31880808 148.00931132 28.84945679 150.03167725 C28.40041471 151.96254326 27.94659795 153.89229689 27.49267578 155.82202148 C26.64093316 159.59904137 25.92451676 163.38385156 25.30444336 167.20532227 C24.43319981 170.27910043 23.86060905 171.89200324 21.69921875 174.34057617 C18.20635405 175.11305539 14.7321745 174.97055995 11.16918945 174.90820312 C10.08610504 174.90893326 9.00302063 174.90966339 7.88711548 174.91041565 C4.29923809 174.90692607 0.71265121 174.86799769 -2.875 174.82885742 C-5.35935253 174.81953424 -7.84371423 174.8124158 -10.32807922 174.80741882 C-16.20371303 174.79026453 -22.07886872 174.75083992 -27.95430642 174.70067137 C-35.2995408 174.63931347 -42.64480225 174.6124497 -49.99023438 174.5847168 C-63.09398625 174.53106131 -76.19735436 174.4466597 -89.30078125 174.34057617 C-88.82686562 176.10532655 -88.35098285 177.86954875 -87.87426758 179.63354492 C-87.60947098 180.61605225 -87.34467438 181.59855957 -87.07185364 182.61083984 C-82.69761467 198.09644044 -75.00652718 212.0760567 -61.17578125 220.77807617 C-51.66239948 226.09265056 -41.66947028 226.47969492 -31.02929688 226.54589844 C-29.53524826 226.56074783 -29.53524826 226.56074783 -28.01101685 226.57589722 C-24.74304521 226.60729792 -21.47505908 226.6321843 -18.20703125 226.65698242 C-15.93159625 226.67757048 -13.65616492 226.69856743 -11.3807373 226.71995544 C-5.40990173 226.77498486 0.56096725 226.82447806 6.53186035 226.87280273 C12.63194735 226.92315794 18.73198619 226.97877064 24.83203125 227.03393555 C36.78771922 227.14128294 48.74344911 227.24277934 60.69921875 227.34057617 C62.37504161 230.6922219 60.93227218 234.23527044 60.19921875 237.77807617 C60.02124756 238.64754883 59.84327637 239.51702148 59.65991211 240.4128418 C58.04058282 248.09979458 56.19276517 255.72654025 54.26171875 263.34057617 C53.98585937 264.44844482 53.71 265.55631348 53.42578125 266.69775391 C53.14605469 267.77613525 52.86632812 268.8545166 52.578125 269.96557617 C52.33650635 270.9065918 52.0948877 271.84760742 51.84594727 272.81713867 C50.75908998 276.15661587 49.48727287 279.32444419 48.12754822 282.56079102 C47.67383315 283.6427475 47.22011808 284.72470398 46.75265408 285.83944702 C46.40502042 286.66481964 46.05738676 287.49019226 45.69921875 288.34057617 C28.45234659 288.4342847 11.20555462 288.50468464 -6.0415144 288.54782486 C-14.05079377 288.56839377 -22.05991437 288.59640491 -30.0690918 288.64233398 C-37.05513397 288.68237651 -44.04106107 288.70805014 -51.02721483 288.71693015 C-54.72163388 288.72211567 -58.41572392 288.73418278 -62.11003685 288.7634964 C-66.24822559 288.79606151 -70.38585323 288.79652452 -74.52416992 288.79467773 C-75.7304303 288.80905884 -76.93669067 288.82343994 -78.17950439 288.83825684 C-89.35685718 288.78459682 -99.29434699 285.56031393 -109.42578125 281.02807617 C-110.09826904 280.72885254 -110.77075684 280.42962891 -111.46362305 280.12133789 C-132.34881386 270.58793298 -148.17993216 255.04669346 -157.8046875 234.27978516 C-159.25838642 231.27185467 -159.25838642 231.27185467 -161.28076172 228.42529297 C-169.65090248 215.47252065 -168.36679516 200.71893311 -168.08325195 185.91186523 C-168.04000271 183.06977196 -168.04137898 180.22845767 -168.04380417 177.38609219 C-168.04270305 174.59991227 -168.02055517 171.81420499 -167.9917984 169.02818489 C-167.97335355 167.09717075 -167.96604176 165.16606009 -167.95916748 163.23497009 C-167.76476217 154.02845186 -165.99909478 146.09287104 -163.30078125 137.34057617 C-162.8637664 135.91779861 -162.8637664 135.91779861 -162.41792297 134.46627808 C-156.34148141 115.14592179 -147.88731858 92.91220393 -133.30078125 78.34057617 C-132.86765625 77.59807617 -132.43453125 76.85557617 -131.98828125 76.09057617 C-129.78222735 72.49552538 -127.09320828 69.4901741 -124.30078125 66.34057617 C-123.09150835 64.96640242 -121.88318397 63.59139343 -120.67578125 62.21557617 C-120.08410156 61.54397461 -119.49242187 60.87237305 -118.8828125 60.18041992 C-117.65789001 58.75588043 -116.49637835 57.27668847 -115.36328125 55.77807617 C-110.92220581 50.52953247 -105.52089024 46.41200319 -99.88671875 42.52416992 C-98.04995156 41.2125465 -98.04995156 41.2125465 -95.73828125 38.77807617 C-93.10172907 36.14152399 -90.44840691 34.33810784 -87.30078125 32.34057617 C-86.26050781 31.62708008 -86.26050781 31.62708008 -85.19921875 30.89916992 C-81.1288559 28.10866343 -77.09226911 25.58377988 -72.63671875 23.46166992 C-70.81504155 22.58738672 -69.0110897 21.67614014 -67.21484375 20.75073242 C-54.64007176 14.29379894 -41.93258411 9.33219029 -28.35302734 5.43212891 C-27.5533252 5.20211182 -26.75362305 4.97209473 -25.9296875 4.73510742 C-25.2291626 4.53763916 -24.5286377 4.3401709 -23.80688477 4.13671875 C-21.11764906 3.33892887 -21.11764906 3.33892887 -17.97544861 1.81210327 C-12.1093432 -0.37949037 -6.18600339 -0.0540871 0 0 Z " fill="#FC0101" transform="translate(167.30078125,-0.340576171875)"/>
<path d="M0 0 C1.87487595 -0.00043808 1.87487595 -0.00043808 3.78762817 -0.00088501 C7.18371962 0.000262 10.57956189 0.01022833 13.9756093 0.02426291 C17.53633406 0.03684397 21.09706284 0.03794654 24.6578064 0.04031372 C31.38653866 0.04650696 38.11520522 0.06288831 44.84390867 0.0830127 C52.51024903 0.10543917 60.17659269 0.11638203 67.84295774 0.12640357 C83.60025845 0.14725668 99.35749377 0.1823903 115.11474609 0.22705078 C115.1325222 1.66168777 115.14517764 3.09638878 115.15568542 4.53109741 C115.16708447 5.7295054 115.16708447 5.7295054 115.1787138 6.95212364 C115.09588853 9.89769511 114.44579898 12.4053261 113.54052734 15.20361328 C113.20480713 16.27627441 112.86908691 17.34893555 112.52319336 18.45410156 C112.16153076 19.5754248 111.79986816 20.69674805 111.42724609 21.85205078 C108.29148572 31.93401024 105.66717994 41.98270633 103.57495117 52.33105469 C103.302677 53.67562744 103.302677 53.67562744 103.02490234 55.04736328 C102.79492554 56.22709717 102.79492554 56.22709717 102.56030273 57.43066406 C102.11474609 59.22705078 102.11474609 59.22705078 101.11474609 60.22705078 C99.67442299 60.32825004 98.22919096 60.36056331 96.7853241 60.36508179 C95.38307587 60.3732618 95.38307587 60.3732618 93.95249939 60.38160706 C92.91831375 60.38264938 91.88412811 60.38369171 90.81860352 60.38476562 C89.19406754 60.3923867 89.19406754 60.3923867 87.53671265 60.40016174 C85.17403674 60.41089554 82.81135047 60.4195038 80.4486599 60.42628098 C76.70247937 60.43804397 72.9564155 60.45749416 69.21028137 60.47940063 C58.55485422 60.54107567 47.89944975 60.59515181 37.24389648 60.62841797 C30.73278923 60.64944015 24.22188947 60.68481479 17.71090126 60.72917557 C15.23398608 60.74328789 12.75703413 60.75204717 10.2800808 60.75522995 C6.79791182 60.76017419 3.31628594 60.78342656 -0.16577148 60.81054688 C-1.17769058 60.80754074 -2.18960968 60.80453461 -3.23219299 60.80143738 C-13.22129302 60.91616423 -22.69423885 63.25915267 -31.82275391 67.28955078 C-32.49242187 67.58410156 -33.16208984 67.87865234 -33.85205078 68.18212891 C-41.02190893 71.50540913 -46.90231442 76.12589439 -52.88525391 81.22705078 C-53.65611328 81.87029297 -54.42697266 82.51353516 -55.22119141 83.17626953 C-57.15003666 84.82059163 -59.02599114 86.50474264 -60.88525391 88.22705078 C-61.44212891 88.73107422 -61.99900391 89.23509766 -62.57275391 89.75439453 C-68.41745632 95.28792066 -73.07932953 101.80181959 -77.88525391 108.22705078 C-79.86525391 110.86705078 -81.84525391 113.50705078 -83.88525391 116.22705078 C-46.92525391 116.22705078 -9.96525391 116.22705078 28.11474609 116.22705078 C26.99043816 130.84305394 26.99043816 130.84305394 25.59130859 136.31298828 C25.29377686 137.5044043 24.99624512 138.69582031 24.68969727 139.92333984 C24.37621338 141.13731445 24.06272949 142.35128906 23.73974609 143.60205078 C23.10059236 146.14571101 22.46384804 148.68997794 21.82958984 151.23486328 C21.52907715 152.43916992 21.22856445 153.64347656 20.91894531 154.88427734 C19.6454162 160.17789016 18.64108803 165.50312595 17.72021484 170.86767578 C17.42050781 172.03556641 17.42050781 172.03556641 17.11474609 173.22705078 C14.73918315 174.41483225 13.3105045 174.35029656 10.6602478 174.3473053 C9.72352737 174.34867996 8.78680695 174.35005463 7.82170105 174.35147095 C6.79095963 174.34787567 5.7602182 174.3442804 4.69824219 174.34057617 C3.6153038 174.3407222 2.53236542 174.34086823 1.41661072 174.34101868 C-2.17621844 174.34031993 -5.76899626 174.3325293 -9.36181641 174.32470703 C-11.8476051 174.32284272 -14.33339416 174.32141888 -16.81918335 174.32041931 C-22.70171788 174.31698643 -28.58423334 174.30909851 -34.46676004 174.29906982 C-41.81979637 174.2868057 -49.17283497 174.28142704 -56.52587891 174.27587891 C-69.64568 174.26514346 -82.76546578 174.24825964 -95.88525391 174.22705078 C-95.61182826 176.77933776 -95.32626917 179.32929123 -95.03369141 181.87939453 C-94.95820068 182.59591187 -94.88270996 183.3124292 -94.80493164 184.05065918 C-94.08324529 190.20259528 -92.14037595 194.95083803 -88.88525391 200.22705078 C-84.88525391 207.10807972 -84.88525391 207.10807972 -84.88525391 209.22705078 C-84.32837891 209.43330078 -83.77150391 209.63955078 -83.19775391 209.85205078 C-80.88525391 211.22705078 -80.88525391 211.22705078 -78.82275391 213.97705078 C-75.21955194 218.55378868 -69.98774231 220.66440012 -64.88525391 223.22705078 C-63.93650391 223.80455078 -62.98775391 224.38205078 -62.01025391 224.97705078 C-49.73727539 229.88624219 -35.45638848 228.39936903 -22.52197266 228.20361328 C-20.2761185 228.17739991 -18.03025308 228.15213674 -15.78437805 228.1277771 C-9.91372246 228.06157898 -4.04330811 227.98259109 1.82714844 227.90081787 C7.83372844 227.81945246 13.84044865 227.75035065 19.84716797 227.68017578 C31.60319525 227.54104626 43.35900404 227.38838674 55.11474609 227.22705078 C54.81870419 228.95751974 54.51736368 230.68708265 54.21386719 232.41625977 C54.04664154 233.37950668 53.87941589 234.3427536 53.7071228 235.33518982 C52.7926318 239.79954633 51.25100634 243.99915653 49.73974609 248.28955078 C45.79644005 259.96173667 44.01432366 271.76885804 42.484375 283.96240234 C42.11474609 286.22705078 42.11474609 286.22705078 41.11474609 288.22705078 C24.39723776 288.36804366 7.67992619 288.47342013 -9.03803539 288.53792381 C-16.80282309 288.56868786 -24.56723858 288.61052774 -32.33178711 288.6796875 C-39.10988709 288.74003138 -45.88771719 288.77832622 -52.66607839 288.79158175 C-56.24581179 288.79931417 -59.82477402 288.81710606 -63.40425682 288.86143112 C-86.33796149 289.13413906 -113.58802134 287.10122029 -131.88525391 271.22705078 C-132.53107422 270.67404297 -133.17689453 270.12103516 -133.84228516 269.55126953 C-135.15735137 268.39124271 -136.47101304 267.22962274 -137.78369141 266.06689453 C-139.1251655 264.89248134 -140.48324967 263.73659971 -141.86181641 262.60595703 C-154.08309575 252.45401782 -162.68805692 239.02535615 -168.76025391 224.47705078 C-169.04658691 223.79239746 -169.33291992 223.10774414 -169.62792969 222.40234375 C-173.0988672 213.70517201 -174.24796145 205.30171295 -174.57275391 195.97705078 C-174.61037842 194.93073486 -174.64800293 193.88441895 -174.68676758 192.80639648 C-175.54456656 164.20517462 -171.01799107 135.98137068 -157.88525391 110.22705078 C-157.35158203 109.12490234 -156.81791016 108.02275391 -156.26806641 106.88720703 C-149.46879929 92.89806438 -142.03863934 78.21424339 -130.88525391 67.22705078 C-130.34900391 66.31955078 -129.81275391 65.41205078 -129.26025391 64.47705078 C-127.88525391 62.22705078 -127.88525391 62.22705078 -124.88525391 61.22705078 C-124.1864893 59.91025533 -123.52340735 58.57426361 -122.88525391 57.22705078 C-121.33447266 55.48095703 -121.33447266 55.48095703 -119.57275391 53.78955078 C-118.94626953 53.18369141 -118.31978516 52.57783203 -117.67431641 51.95361328 C-117.08392578 51.38384766 -116.49353516 50.81408203 -115.88525391 50.22705078 C-114.67869141 48.95861328 -114.67869141 48.95861328 -113.44775391 47.66455078 C-110.75869874 45.10666904 -107.94423456 42.93530081 -104.94775391 40.75439453 C-103.44630127 39.64252335 -101.9773877 38.48630423 -100.52978516 37.30517578 C-77.76736064 19.41801206 -50.80920761 8.88937762 -22.88525391 2.22705078 C-22.21255337 2.06137604 -21.53985283 1.89570129 -20.84676743 1.7250061 C-13.85168963 0.14734465 -7.15068883 -0.04428939 0 0 Z " fill="#EC1C24" transform="translate(751.88525390625,-0.22705078125)"/>
<path d="M0 0 C1.10208801 -0.00137466 2.20417603 -0.00274933 3.33966064 -0.00416565 C4.533685 -0.00057037 5.72770935 0.0030249 6.95791626 0.00672913 C8.22675659 0.0065831 9.49559692 0.00643707 10.80288696 0.00628662 C14.26937754 0.00600051 17.7358333 0.01186709 21.20231581 0.01886058 C24.82980134 0.02512517 28.45728773 0.02570037 32.08477783 0.02688599 C38.94820015 0.02999015 45.81160648 0.0381912 52.67502177 0.04823548 C60.49121312 0.05942503 68.30740525 0.06491422 76.12360263 0.06993091 C92.19680116 0.08037459 108.26998362 0.0979563 124.34317017 0.12025452 C124.04774607 2.81064719 123.74662536 5.50020307 123.44229126 8.18959045 C123.36018906 8.94267487 123.27808685 9.69575928 123.1934967 10.47166443 C122.4137629 17.29393162 120.86917774 23.77365658 118.96817017 30.37025452 C118.65653931 31.48416565 118.34490845 32.59807678 118.02383423 33.7457428 C117.14350098 36.87454426 116.245468 39.99773148 115.34317017 43.12025452 C114.92878927 44.59151904 114.51467654 46.06285916 114.10098267 47.53431702 C111.31348491 57.10688682 111.31348491 57.10688682 108.34317017 60.12025452 C105.27227783 60.72221375 105.27227783 60.72221375 101.43936157 60.85707092 C100.38561057 60.89981864 100.38561057 60.89981864 99.31057167 60.94342995 C96.98805777 61.02783593 94.66682493 61.07846716 92.34317017 61.12025452 C91.16887074 61.14393726 91.16887074 61.14393726 89.97084808 61.16809845 C84.84627717 61.2621498 79.72230704 61.29987638 74.59696579 61.31948471 C71.72695384 61.33151544 68.85707683 61.35101719 65.98712158 61.37260437 C57.83990022 61.43346061 49.69270328 61.48823938 41.5453186 61.5216217 C36.52761723 61.54271293 31.51018184 61.57810768 26.49263382 61.6223793 C24.60071586 61.63639931 22.7087511 61.64522953 20.81678391 61.64843369 C6.12837909 61.6759731 -6.99281307 63.11651217 -20.71932983 68.80775452 C-21.57365601 69.15878235 -22.42798218 69.50981018 -23.30819702 69.87147522 C-48.27292874 80.41480992 -67.16483996 98.15593249 -77.65682983 123.12025452 C-80.84774829 131.21046007 -83.3921478 139.50276998 -84.65682983 148.12025452 C-84.76768921 148.83439514 -84.87854858 149.54853577 -84.99276733 150.28431702 C-87.61058252 170.87307967 -85.04558683 188.16601207 -74.65682983 206.12025452 C-74.3074939 206.90142639 -73.95815796 207.68259827 -73.59823608 208.48744202 C-72.69158588 210.47751152 -72.69158588 210.47751152 -69.65682983 211.12025452 C-68.99682983 211.82150452 -68.33682983 212.52275452 -67.65682983 213.24525452 C-58.08638774 223.19271402 -47.46365307 225.38686857 -34.29745483 225.71400452 C-32.42008636 225.76953491 -32.42008636 225.76953491 -30.50479126 225.82618713 C-10.64041243 226.38696221 9.23780976 226.4843189 29.10830688 226.67250061 C33.55729793 226.71495534 38.00621937 226.76212184 42.45513153 226.81213379 C44.94637551 226.83860688 47.43762705 226.8594305 49.92892456 226.88014221 C51.43191874 226.89671786 52.93490972 226.91358719 54.43789673 226.93080139 C55.75163269 226.94332947 57.06536865 226.95585754 58.41891479 226.96876526 C61.34317017 227.12025452 61.34317017 227.12025452 62.34317017 228.12025452 C62.25855506 236.03316215 60.46516233 243.61793024 58.53067017 251.24525452 C57.98732904 253.44307916 57.44436167 255.64099623 56.90176392 257.83900452 C56.63605591 258.9050592 56.3703479 259.97111389 56.09658813 261.06947327 C55.05538121 265.28558531 54.07061294 269.51398777 53.09317017 273.74525452 C51.97430839 278.58384098 50.71979229 283.34895896 49.34317017 288.12025452 C29.8625632 288.26069932 10.38205962 288.36635968 -9.09894943 288.43112755 C-18.145271 288.46200589 -27.19127717 288.50407042 -36.23739624 288.57289124 C-44.12619697 288.6328786 -52.01476917 288.6714474 -59.90379167 288.68478549 C-64.07731069 288.69257677 -68.25017619 288.7107601 -72.4234848 288.75463486 C-76.36020388 288.79568284 -80.29600692 288.80785971 -84.23291969 288.7989006 C-85.66955627 288.80053702 -87.10622687 288.81228025 -88.54267693 288.83548737 C-98.42815985 288.98721923 -105.21596307 287.26711573 -113.65682983 282.12025452 C-114.48379742 281.64836889 -115.310765 281.17648327 -116.16279221 280.69029808 C-118.04526965 279.58294043 -119.86114208 278.36342296 -121.65682983 277.12025452 C-121.65682983 276.46025452 -121.65682983 275.80025452 -121.65682983 275.12025452 C-122.2046814 274.89080139 -122.75253296 274.66134827 -123.31698608 274.42494202 C-126.33122861 272.74421246 -128.5746094 270.60072133 -131.09432983 268.24525452 C-133.76200916 265.75937809 -136.38816673 263.3301098 -139.26229858 261.08509827 C-158.87112108 244.9949878 -166.63105309 217.31141053 -169.46713257 193.21815491 C-171.56252121 170.04482854 -168.1577217 146.72990805 -159.65682983 125.12025452 C-159.36292358 124.35551819 -159.06901733 123.59078186 -158.76620483 122.8028717 C-152.62150183 106.95292276 -144.9572931 91.70013879 -134.65682983 78.12025452 C-133.53534546 76.60238342 -133.53534546 76.60238342 -132.39120483 75.05384827 C-126.60125074 67.2957492 -120.34548265 60.11176315 -113.65682983 53.12025452 C-113.20162964 52.63782288 -112.74642944 52.15539124 -112.2774353 51.65834045 C-105.91783175 44.93952662 -99.34398221 39.25867062 -91.65682983 34.12025452 C-90.5753064 33.39064514 -89.49378296 32.66103577 -88.37948608 31.90931702 C-80.10158214 26.40916206 -71.57914659 21.49670735 -62.65682983 17.12025452 C-61.99747437 16.79170471 -61.3381189 16.46315491 -60.65878296 16.12464905 C-43.16912144 7.58405885 -19.57596889 -0.01893227 0 0 Z " fill="#FC0101" transform="translate(454.6568298339844,-0.1202545166015625)"/>
<path d="M0 0 C0.495 1.485 0.495 1.485 1 3 C0 4 0 4 -1.85657597 4.12304783 C-2.67420634 4.12212604 -3.49183672 4.12120424 -4.33424377 4.12025452 C-5.26958954 4.12162918 -6.2049353 4.12300385 -7.16862488 4.12442017 C-8.20296158 4.12082489 -9.23729828 4.11722961 -10.30297852 4.11352539 C-11.38577087 4.11367142 -12.46856323 4.11381744 -13.58416748 4.1139679 C-17.18243374 4.11326823 -20.78064897 4.10547333 -24.37890625 4.09765625 C-26.86612418 4.09579226 -29.35334248 4.09436827 -31.84056091 4.09336853 C-37.73021191 4.0899335 -43.6198439 4.08204277 -49.50948709 4.07201904 C-56.87025374 4.05976246 -64.23102264 4.05437791 -71.59179688 4.04882812 C-84.72787398 4.03808815 -97.86393583 4.02120089 -111 4 C-110.83701416 5.10029541 -110.67402832 6.20059082 -110.50610352 7.33422852 C-110.09914829 10.28185648 -109.89193062 12.97549004 -109.9375 15.9375 C-109.94652344 16.70964844 -109.95554687 17.48179687 -109.96484375 18.27734375 C-109.98224609 19.13005859 -109.98224609 19.13005859 -110 20 C-110.66 19.67 -111.32 19.34 -112 19 C-112.37890625 17.1875 -112.37890625 17.1875 -112.5625 15 C-112.62665408 12.21067942 -112.62665408 12.21067942 -114 10 C-114 7.03 -114 4.06 -114 1 C-57.57 0.505 -57.57 0.505 0 0 Z " fill="#D8666A" transform="translate(767,170)"/>
<path d="M0 0 C0.66 0 1.32 0 2 0 C1.61180273 8.35278404 -0.0756792 16.19624519 -2.21875 24.25048828 C-2.74490297 26.23081587 -3.25629564 28.21450579 -3.765625 30.19921875 C-5.51958355 36.95553229 -7.43776092 43.65241932 -9.578125 50.296875 C-9.9690332 51.51213867 -10.35994141 52.72740234 -10.76269531 53.97949219 C-12.59678354 58.45686778 -12.59678354 58.45686778 -15 60 C-17.70556641 60.41650391 -17.70556641 60.41650391 -21.1015625 60.4765625 C-21.7421611 60.49173416 -22.3827597 60.50690582 -23.04277039 60.52253723 C-25.23680178 60.57062449 -27.43062158 60.5974372 -29.625 60.625 C-31.20339459 60.65637834 -32.78176373 60.68905863 -34.36010742 60.72290039 C-43.60917457 60.90939566 -52.85960519 61.01262575 -62.10979843 61.12610626 C-65.7503453 61.17080627 -69.39087184 61.21659219 -73.03137207 61.26495361 C-73.76005871 61.27462914 -74.48874535 61.28430466 -75.2395134 61.29427338 C-76.71622198 61.31392865 -78.19292944 61.33366858 -79.66963577 61.35349274 C-84.0801797 61.41168724 -88.49068856 61.45940351 -92.9014349 61.49923038 C-95.70257189 61.52626857 -98.50357806 61.56108328 -101.30460548 61.59763145 C-103.24594772 61.62044926 -105.18739618 61.6335847 -107.12882996 61.6464386 C-114.44603 61.74115881 -114.44603 61.74115881 -121.60620117 63.08618164 C-124.93415722 63.98227109 -125.8864111 63.97020802 -129 63 C-128.34 63 -127.68 63 -127 63 C-127 62.34 -127 61.68 -127 61 C-114.99318526 59.18205987 -103.2597845 58.67907976 -91.1328125 58.62109375 C-89.2771623 58.60487401 -87.42152032 58.58768954 -85.56588745 58.56959534 C-80.73687525 58.52441036 -75.90785144 58.48932782 -71.07873535 58.45739746 C-63.30240887 58.40501323 -55.52620109 58.34043494 -47.7500267 58.26918221 C-45.04113635 58.24637432 -42.33226152 58.23010372 -39.62332153 58.21446228 C-37.97690648 58.20106575 -36.33049318 58.18745184 -34.68408203 58.17358398 C-33.55437988 58.16966393 -33.55437988 58.16966393 -32.40185547 58.16566467 C-28.57405381 58.19312891 -28.57405381 58.19312891 -25 57 C-23.12620395 56.92966231 -21.24998898 56.9156978 -19.375 56.9375 C-17.87066406 56.95103516 -17.87066406 56.95103516 -16.3359375 56.96484375 C-15.56507813 56.97644531 -14.79421875 56.98804688 -14 57 C-14 55.02 -14 53.04 -14 51 C-13.34 51 -12.68 51 -12 51 C-11.855625 49.948125 -11.71125 48.89625 -11.5625 47.8125 C-11.12473034 44.84539451 -10.62195134 41.93205634 -10 39 C-9.34 39 -8.68 39 -8 39 C-8.020625 38.030625 -8.04125 37.06125 -8.0625 36.0625 C-8 33 -8 33 -7 32 C-6.835 30.845 -6.67 29.69 -6.5 28.5 C-6 25 -6 25 -5 24 C-4.4605275 20.70876442 -4.0338661 17.40795985 -3.59765625 14.1015625 C-3 11 -3 11 -1 8 C-0.54860541 5.9507906 -0.54860541 5.9507906 -0.375 3.8125 C-0.189375 1.9253125 -0.189375 1.9253125 0 0 Z " fill="#E27D7D" transform="translate(287,0)"/>
<path d="M0 0 C0.33 0 0.66 0 1 0 C0.51532001 7.3913699 -0.5400847 16.5400847 -6 22 C-8.97323608 22.40664673 -8.97323608 22.40664673 -12.84130859 22.61181641 C-13.54832098 22.64933832 -14.25533337 22.68686024 -14.98377037 22.72551918 C-23.23334116 23.12357907 -31.48859836 23.16763857 -39.74620438 23.19923019 C-42.61621632 23.21126092 -45.48609334 23.23076267 -48.35604858 23.25234985 C-56.50326994 23.3132061 -64.65046689 23.36798486 -72.79785156 23.40136719 C-77.81555294 23.42245842 -82.83298833 23.45785317 -87.85053635 23.50212479 C-89.7424543 23.51614479 -91.63441907 23.52497501 -93.52638626 23.52817917 C-104.50781681 23.54876834 -114.31349225 24.31662531 -125 27 C-126.99683418 27.35180163 -128.99615082 27.69064651 -131 28 C-130.505 26.515 -130.505 26.515 -130 25 C-128.35 25 -126.7 25 -125 25 C-125 24.34 -125 23.68 -125 23 C-124.28972656 22.93941406 -123.57945312 22.87882812 -122.84765625 22.81640625 C-121.46900391 22.69072266 -121.46900391 22.69072266 -120.0625 22.5625 C-119.14597656 22.48128906 -118.22945313 22.40007813 -117.28515625 22.31640625 C-115.03840268 22.23955024 -115.03840268 22.23955024 -114 21 C-110.83976555 20.87988941 -107.70042933 20.82449201 -104.5390625 20.81054688 C-103.54565857 20.80225357 -102.55225464 20.79396027 -101.52874756 20.78541565 C-99.3641319 20.76797252 -97.1994969 20.75281751 -95.03485107 20.73963928 C-91.61514229 20.71868961 -88.19553086 20.69166137 -84.77587891 20.66296387 C-76.28186841 20.59296925 -67.78778891 20.53366685 -59.29370117 20.47393799 C-52.12192718 20.42310376 -44.95020522 20.36830519 -37.77850342 20.30812073 C-34.39873782 20.28143741 -31.01896768 20.26068836 -27.63916016 20.2401123 C-25.57975024 20.22351696 -23.52034252 20.2066458 -21.4609375 20.18945312 C-20.03802399 20.1831765 -20.03802399 20.1831765 -18.58636475 20.17677307 C-14.46696096 20.5562527 -14.46696096 20.5562527 -11 19 C-9.33382885 18.95936168 -7.66611905 18.957279 -6 19 C-6.350625 18.0925 -6.70125 17.185 -7.0625 16.25 C-7.96468779 13.12241564 -8.13381507 11.94791919 -7 9 C-5.35 9.33 -3.7 9.66 -2 10 C-2.04125 8.906875 -2.0825 7.81375 -2.125 6.6875 C-2 3 -2 3 0 0 Z " fill="#E17070" transform="translate(569,38)"/>
<path d="M0 0 C37.29 0 74.58 0 113 0 C111.875 13.5 111.875 13.5 110.80859375 17.984375 C110.58623047 18.93828125 110.36386719 19.8921875 110.13476562 20.875 C109.90466797 21.82375 109.67457031 22.7725 109.4375 23.75 C109.08655273 25.24273437 109.08655273 25.24273437 108.72851562 26.765625 C108.15997787 29.17900977 107.58377847 31.59026541 107 34 C106.67 34 106.34 34 106 34 C105.97313447 32.02090602 105.95366625 30.04171029 105.9375 28.0625 C105.92589844 26.96035156 105.91429687 25.85820312 105.90234375 24.72265625 C106 22 106 22 107 21 C107.23192865 19.48530552 107.41215238 17.96245438 107.5625 16.4375 C107.68818359 15.19806641 107.68818359 15.19806641 107.81640625 13.93359375 C107.87699219 13.29550781 107.93757813 12.65742188 108 12 C108.66 12 109.32 12 110 12 C110 9.03 110 6.06 110 3 C73.7 3 37.4 3 0 3 C0 2.01 0 1.02 0 0 Z " fill="#F24D4D" transform="translate(89,116)"/>
<path d="M0 0 C55.935 0.495 55.935 0.495 113 1 C112.33578905 9.6347424 111.55695638 17.08995913 109.4375 25.3125 C109.08655273 26.72692383 109.08655273 26.72692383 108.72851562 28.16992188 C108.16160796 30.44912208 107.5854763 32.72551327 107 35 C106.67 35 106.34 35 106 35 C105.64079135 24.22374063 107.60384574 14.18846278 111 4 C75.03 4 39.06 4 2 4 C1.34 2.68 0.68 1.36 0 0 Z " fill="#F06367" transform="translate(667,115)"/>
<path d="M0 0 C2.30525862 0.86447198 4.5435792 1.74280213 6.69140625 2.953125 C19.18897035 9.94549907 34.62653019 8.34153006 48.484375 8.4140625 C50.75409632 8.43279851 53.02381086 8.45237369 55.29351807 8.4727478 C61.23140439 8.52381803 67.16931323 8.56357737 73.1072998 8.60089111 C79.1809637 8.64108912 85.25453595 8.69210899 91.328125 8.7421875 C103.21868538 8.83864908 115.10929782 8.9231481 127 9 C128.28517122 11.57034244 127.84670488 12.66885251 127.29296875 15.46484375 C127.0309668 16.78838867 127.0309668 16.78838867 126.76367188 18.13867188 C126.4784668 19.5240918 126.4784668 19.5240918 126.1875 20.9375 C126.00896484 21.85724609 125.83042969 22.77699219 125.64648438 23.72460938 C125.46794922 24.60826172 125.28941406 25.49191406 125.10546875 26.40234375 C124.94199951 27.21179443 124.77853027 28.02124512 124.61010742 28.85522461 C124 31 124 31 122 34 C122 30.04 122 26.08 122 22 C122.66 22 123.32 22 124 22 C124.02689216 20.52093108 124.04634621 19.04172517 124.0625 17.5625 C124.07410156 16.73878906 124.08570313 15.91507813 124.09765625 15.06640625 C124.23267348 13.00836062 124.23267348 13.00836062 123 12 C112.61394979 10.66906332 102.072427 10.87660182 91.6234951 10.92483521 C88.79507576 10.93777632 85.96670408 10.94415717 83.13825989 10.94897461 C77.15465141 10.96029426 71.17108347 10.97959828 65.1875 11 C58.20413326 11.02361357 51.22078765 11.04394202 44.23739052 11.05593872 C41.44698265 11.06243248 38.65664216 11.07492789 35.86625671 11.08764648 C34.1728013 11.09127527 32.47934526 11.09462746 30.78588867 11.09765625 C29.61802826 11.10540573 29.61802826 11.10540573 28.42657471 11.11331177 C26.61732218 11.11349274 24.80817699 11.0623755 23 11 C22.67 10.67 22.34 10.34 22 10 C20.15108054 9.76636119 18.29511969 9.58696365 16.4375 9.4375 C15.42558594 9.35371094 14.41367188 9.26992187 13.37109375 9.18359375 C12.58863281 9.12300781 11.80617188 9.06242188 11 9 C11 8.34 11 7.68 11 7 C10.28972656 6.82984375 9.57945313 6.6596875 8.84765625 6.484375 C7.92855469 6.24203125 7.00945312 5.9996875 6.0625 5.75 C5.14597656 5.51796875 4.22945313 5.2859375 3.28515625 5.046875 C1 4 1 4 0.18359375 1.890625 C0.12300781 1.26671875 0.06242187 0.6428125 0 0 Z " fill="#BE1514" transform="translate(101,218)"/>
<path d="M0 0 C36.96 0 73.92 0 112 0 C112 0.99 112 1.98 112 3 C74.71 3 37.42 3 -1 3 C-0.67 2.01 -0.34 1.02 0 0 Z " fill="#CB232B" transform="translate(741,56)"/>
<path d="M0 0 C0 3.73361842 -0.66738033 6.50980564 -2 10 C-3.65816784 10.68753301 -5.32459336 11.35561283 -7 12 C-7.89830839 15.05272465 -7.89830839 15.05272465 -8 18 C-8.99 18 -9.98 18 -11 18 C-11.66 19.98 -12.32 21.96 -13 24 C-13.66 24 -14.32 24 -15 24 C-15 25.65 -15 27.3 -15 29 C-15.99 29 -16.98 29 -18 29 C-18.18175781 29.81984375 -18.36351562 30.6396875 -18.55078125 31.484375 C-18.80214844 32.56203125 -19.05351562 33.6396875 -19.3125 34.75 C-19.55613281 35.81734375 -19.79976562 36.8846875 -20.05078125 37.984375 C-20.98661759 40.95748469 -22.06964981 42.60781872 -24 45 C-24.4945834 46.61563911 -24.98174208 48.23463516 -25.40234375 49.87109375 C-27.13688557 56.04969042 -29.59645889 62.05552778 -32 68 C-32.66 68 -33.32 68 -34 68 C-30.45696839 48.15902297 -19.89796862 21.89593648 -5.45043945 7.45068359 C-3.53408302 5.5340046 -2.35280296 3.33665965 -1 1 C-0.67 0.67 -0.34 0.34 0 0 Z " fill="#E64645" transform="translate(38,72)"/>
<path d="M0 0 C0.78234009 0.02767456 1.56468018 0.05534912 2.37072754 0.0838623 C19.4022434 0.67339826 36.4278858 1.09510709 53.46875 1.28125 C54.32897766 1.29079712 55.18920532 1.30034424 56.07550049 1.31018066 C64.04522147 1.39769249 72.01502371 1.47640011 79.98486328 1.55224609 C84.4125306 1.59468963 88.84012778 1.64184213 93.26771545 1.69187927 C95.74124139 1.71832229 98.21477513 1.73915593 100.68835449 1.7598877 C102.17830756 1.77646023 103.66825737 1.79332926 105.15820312 1.81054688 C106.45987427 1.82307495 107.76154541 1.83560303 109.10266113 1.84851074 C112 2 112 2 113 3 C113.1022003 12.79078895 110.23716386 22.54147932 108 32 C107.67 32 107.34 32 107 32 C106.78774988 25.42024642 107.26699897 19.37541983 109 13 C109.33 12.67 109.66 12.34 110 12 C110.23075082 10.65252916 110.41153063 9.29622435 110.5625 7.9375 C110.706875 6.638125 110.85125 5.33875 111 4 C109.58989655 3.9845388 109.58989655 3.9845388 108.15130615 3.96876526 C99.1537033 3.86965442 90.15614893 3.76683187 81.15862656 3.66066074 C76.53643295 3.60623027 71.91423293 3.55296795 67.29199219 3.50268555 C32.10936743 3.11810476 32.10936743 3.11810476 14.578125 2.58984375 C13.42842224 2.56112686 12.27871948 2.53240997 11.09417725 2.50282288 C10.05666321 2.46700607 9.01914917 2.43118927 7.95019531 2.39428711 C7.05858704 2.36644638 6.16697876 2.33860565 5.24835205 2.30992126 C3 2 3 2 0 0 Z " fill="#BD2021" transform="translate(404,225)"/>
<path d="M0 0 C0.66 0 1.32 0 2 0 C1.61180273 8.35278404 -0.0756792 16.19624519 -2.21875 24.25048828 C-2.74490297 26.23081587 -3.25629564 28.21450579 -3.765625 30.19921875 C-5.51958355 36.95553229 -7.43776092 43.65241932 -9.578125 50.296875 C-10.1644873 52.11977051 -10.1644873 52.11977051 -10.76269531 53.97949219 C-11.90159815 56.75978144 -12.60951032 58.24012313 -15 60 C-17.41015625 60.36328125 -17.41015625 60.36328125 -20.0625 60.3125 C-20.94035156 60.30863281 -21.81820313 60.30476563 -22.72265625 60.30078125 C-25 60 -25 60 -27 58 C-24.35541621 56.67770811 -22.32238699 56.90322806 -19.375 56.9375 C-17.87066406 56.95103516 -17.87066406 56.95103516 -16.3359375 56.96484375 C-15.56507813 56.97644531 -14.79421875 56.98804688 -14 57 C-14 55.02 -14 53.04 -14 51 C-13.34 51 -12.68 51 -12 51 C-11.855625 49.948125 -11.71125 48.89625 -11.5625 47.8125 C-11.12473034 44.84539451 -10.62195134 41.93205634 -10 39 C-9.34 39 -8.68 39 -8 39 C-8.020625 38.030625 -8.04125 37.06125 -8.0625 36.0625 C-8 33 -8 33 -7 32 C-6.835 30.845 -6.67 29.69 -6.5 28.5 C-6 25 -6 25 -5 24 C-4.4605275 20.70876442 -4.0338661 17.40795985 -3.59765625 14.1015625 C-3 11 -3 11 -1 8 C-0.54860541 5.9507906 -0.54860541 5.9507906 -0.375 3.8125 C-0.25125 2.554375 -0.1275 1.29625 0 0 Z " fill="#E45254" transform="translate(287,0)"/>
<path d="M0 0 C0.66902344 0.19335938 1.33804688 0.38671875 2.02734375 0.5859375 C20.68392857 5.64450144 39.73441047 5.39657143 58.90814209 5.60089111 C62.5358536 5.64148794 66.16342181 5.69232047 69.79101562 5.7421875 C76.86057118 5.83791336 83.93021762 5.92263459 91 6 C91 6.33 91 6.66 91 7 C81.00279023 7.04649277 71.00560649 7.08195491 61.00831032 7.10362434 C56.36536444 7.11402847 51.72249293 7.12812561 47.07958984 7.15087891 C42.59270885 7.17272813 38.10589908 7.18459394 33.61896896 7.18975449 C31.91349544 7.19342867 30.20802548 7.20060301 28.50258255 7.21146011 C5.8451593 7.34986681 5.8451593 7.34986681 1.24624634 3.55154419 C0 2 0 2 0 0 Z " fill="#DC1F26" transform="translate(687,224)"/>
<path d="M0 0 C-1.98319328 11.66986795 -1.98319328 11.66986795 -4 17 C-5.06671952 13.79984144 -4.94845472 12.11455706 -4.5625 8.8125 C-4.46066406 7.91144531 -4.35882812 7.01039063 -4.25390625 6.08203125 C-4.12822266 5.05142578 -4.12822266 5.05142578 -4 4 C-3.34 4 -2.68 4 -2 4 C-2 3.34 -2 2.68 -2 2 C-29.06 2 -56.12 2 -84 2 C-84 1.67 -84 1.34 -84 1 C-76.00088122 0.86768471 -68.00173546 0.73718982 -60.00255203 0.60884857 C-56.28586655 0.5491634 -52.56919222 0.48891393 -48.85253906 0.42724609 C-32.56794972 0.15744765 -16.28750068 -0.08930095 0 0 Z " fill="#EC99A5" transform="translate(807,227)"/>
<path d="M0 0 C0.99 0 1.98 0 3 0 C1.68197635 3.64991166 0.40785992 5.7895201 -2 9 C34.96 9 71.92 9 110 9 C110 9.33 110 9.66 110 10 C72.71 10 35.42 10 -3 10 C-3 8.35 -3 6.7 -3 5 C-2.34 4.67 -1.68 4.34 -1 4 C-0.34786708 1.97536745 -0.34786708 1.97536745 0 0 Z " fill="#CC1111" transform="translate(91,108)"/>
<path d="M0 0 C37.62 0 75.24 0 114 0 C114 0.33 114 0.66 114 1 C77.04 1 40.08 1 2 1 C2.33 2.65 2.66 4.3 3 6 C2.34 6.66 1.68 7.32 1 8 C0.67 5.36 0.34 2.72 0 0 Z " fill="#E70808" transform="translate(75,171)"/>
<path d="M0 0 C0.66 0 1.32 0 2 0 C1.49396008 2.16874252 1.00016187 3.99967627 0 6 C36.96 6 73.92 6 112 6 C112 6.33 112 6.66 112 7 C56.065 7.495 56.065 7.495 -1 8 C-2 6 -2 6 -1.0625 2.875 C-0.5365625 1.451875 -0.5365625 1.451875 0 0 Z " fill="#C12026" transform="translate(667,111)"/>
<path d="M0 0 C1.32 0.33 2.64 0.66 4 1 C2.81019029 3.51885246 1.48185045 5.86427344 0.046875 8.2578125 C-7.58662907 21.00641389 -12.62727443 34.28910148 -15 49 C-15.33 49 -15.66 49 -16 49 C-16.23668569 41.96517526 -15.7879537 35.8165735 -14 29 C-13.34 29 -12.68 29 -12 29 C-12.33 26.69 -12.66 24.38 -13 22 C-12.34 22 -11.68 22 -11 22 C-10.01 19.69 -9.02 17.38 -8 15 C-7.34 15 -6.68 15 -6 15 C-5.9071875 13.6696875 -5.9071875 13.6696875 -5.8125 12.3125 C-4.81434352 8.24309281 -2.94942132 6.87379513 0 4 C0 2.68 0 1.36 0 0 Z " fill="#E83C40" transform="translate(385,99)"/>
<path d="M0 0 C0.66 0.33 1.32 0.66 2 1 C-1.75 6.875 -1.75 6.875 -4 8 C-4 8.66 -4 9.32 -4 10 C-5.134375 10.45375 -6.26875 10.9075 -7.4375 11.375 C-11.04721692 12.57095806 -11.04721692 12.57095806 -12 15 C-12.99 15.33 -13.98 15.66 -15 16 C-15.33 16.99 -15.66 17.98 -16 19 C-16.66 19 -17.32 19 -18 19 C-18 19.66 -18 20.32 -18 21 C-18.66 21.33 -19.32 21.66 -20 22 C-20.433125 22.825 -20.86625 23.65 -21.3125 24.5 C-23 27 -23 27 -25.6875 27.8125 C-26.450625 27.874375 -27.21375 27.93625 -28 28 C-26.58306179 24.78544696 -24.87599293 22.61902678 -22.40234375 20.13671875 C-21.68240234 19.41419922 -20.96246094 18.69167969 -20.22070312 17.94726562 C-19.46724609 17.20154297 -18.71378906 16.45582031 -17.9375 15.6875 C-17.21111328 14.95337891 -16.48472656 14.21925781 -15.73632812 13.46289062 C-10.79143593 8.53548699 -5.60798949 4.15489379 0 0 Z " fill="#EC3C3C" transform="translate(361,35)"/>
<path d="M0 0 C0.66 0 1.32 0 2 0 C4.84450614 3.71973879 5.3227506 6.37390802 5 11 C5.66 11 6.32 11 7 11 C7.67305018 12.60149886 8.33822227 14.20631029 9 15.8125 C9.37125 16.70582031 9.7425 17.59914062 10.125 18.51953125 C11 21 11 21 11 24 C11.66 24 12.32 24 13 24 C13.3403125 25.2065625 13.3403125 25.2065625 13.6875 26.4375 C14.120625 27.283125 14.55375 28.12875 15 29 C17.54775306 29.89386164 17.54775306 29.89386164 20 30 C20 32.66666667 20 35.33333333 20 38 C9.96615828 29.18238152 4.07774564 15.49678099 0 3 C0 2.01 0 1.02 0 0 Z " fill="#DF3C3D" transform="translate(290,216)"/>
<path d="M0 0 C5.94 0 11.88 0 18 0 C19.28517122 2.57034244 18.84670488 3.66885251 18.29296875 6.46484375 C18.0309668 7.78838867 18.0309668 7.78838867 17.76367188 9.13867188 C17.4784668 10.5240918 17.4784668 10.5240918 17.1875 11.9375 C17.00896484 12.85724609 16.83042969 13.77699219 16.64648438 14.72460938 C16.46794922 15.60826172 16.28941406 16.49191406 16.10546875 17.40234375 C15.94199951 18.21179443 15.77853027 19.02124512 15.61010742 19.85522461 C15 22 15 22 13 25 C13 21.04 13 17.08 13 13 C13.66 13 14.32 13 15 13 C15.02689216 11.52093108 15.04634621 10.04172517 15.0625 8.5625 C15.07410156 7.73878906 15.08570313 6.91507813 15.09765625 6.06640625 C15.23267348 4.00836062 15.23267348 4.00836062 14 3 C11.65012738 2.76472227 9.29443961 2.58613583 6.9375 2.4375 C5.64714844 2.35371094 4.35679687 2.26992187 3.02734375 2.18359375 C1.52880859 2.09271484 1.52880859 2.09271484 0 2 C0 1.34 0 0.68 0 0 Z " fill="#E16560" transform="translate(210,227)"/>
<path d="M0 0 C0.33 0 0.66 0 1 0 C0.51532001 7.3913699 -0.5400847 16.5400847 -6 22 C-8.68839385 22.26991906 -11.29141936 22.08737357 -14 22 C-12.8125 20.5 -12.8125 20.5 -11 19 C-8.3125 18.8125 -8.3125 18.8125 -6 19 C-6.350625 18.0925 -6.70125 17.185 -7.0625 16.25 C-7.96468779 13.12241564 -8.13381507 11.94791919 -7 9 C-5.35 9.33 -3.7 9.66 -2 10 C-2.04125 8.906875 -2.0825 7.81375 -2.125 6.6875 C-2 3 -2 3 0 0 Z " fill="#EE0607" transform="translate(569,38)"/>
<path d="M0 0 C1 2 1 2 0.1875 4.9375 C-1 8 -1 8 -3 11 C-3.46904521 12.608155 -3.93341863 14.21791078 -4.3671875 15.8359375 C-6.17420981 22.01550762 -8.58819348 28.03508565 -11 34 C-11.66 34 -12.32 34 -13 34 C-10.87609287 22.10612009 -6.42947537 10.24164219 0 0 Z " fill="#E2292B" transform="translate(17,106)"/>
<path d="M0 0 C0.33 0 0.66 0 1 0 C1.02684312 2.81256281 1.04676188 5.62487241 1.0625 8.4375 C1.07087891 9.23994141 1.07925781 10.04238281 1.08789062 10.86914062 C1.0965143 12.91295221 1.0522815 14.95683902 1 17 C0.67 17.33 0.34 17.66 0 18 C-0.15714654 19.63256758 -0.25085414 21.27135338 -0.31640625 22.91015625 C-0.35830078 23.89951172 -0.40019531 24.88886719 -0.44335938 25.90820312 C-0.50233398 27.46958008 -0.50233398 27.46958008 -0.5625 29.0625 C-0.60568359 30.10728516 -0.64886719 31.15207031 -0.69335938 32.22851562 C-0.79981225 34.81886884 -0.9018276 37.40932186 -1 40 C-1.66 40 -2.32 40 -3 40 C-3.37621274 26.29813909 -2.7865376 13.43509201 0 0 Z " fill="#DC3C3C" transform="translate(288,150)"/>
<path d="M0 0 C0.99 1.32 1.98 2.64 3 4 C2.67 4.66 2.34 5.32 2 6 C1.34 6 0.68 6 0 6 C-0.04898438 6.72445312 -0.09796875 7.44890625 -0.1484375 8.1953125 C-0.93665845 18.38782477 -0.93665845 18.38782477 -3 23 C-3.66 23.33 -4.32 23.66 -5 24 C-5.47001033 27.27555608 -5.47001033 27.27555608 -5.625 31.0625 C-5.69976563 32.35285156 -5.77453125 33.64320313 -5.8515625 34.97265625 C-5.90054688 35.97167969 -5.94953125 36.97070312 -6 38 C-6.66 38 -7.32 38 -8 38 C-7.94457443 25.11355401 -4.04935852 12.14807557 0 0 Z " fill="#DC6062" transform="translate(586,130)"/>
<path d="M0 0 C1.02879148 2.67485785 0.9802834 4.09266804 0.375 6.9375 C-1.21040036 10.46861899 -3.27794652 12.27794652 -6 15 C-7.21833885 17.29277941 -8.09028556 19.55813492 -9 22 C-9.99 22 -10.98 22 -12 22 C-12.33 23.65 -12.66 25.3 -13 27 C-13.66 27 -14.32 27 -15 27 C-13.66760108 22.33660378 -11.73342909 18.98299667 -9 15 C-8.15300336 13.50767258 -7.32044236 12.00708951 -6.5 10.5 C-4.50735946 6.85402303 -2.36432465 3.4151356 0 0 Z " fill="#DD656B" transform="translate(612,78)"/>
<path d="M0 0 C-0.25823963 11.33906758 -3.21185972 22.06864672 -6 33 C-6.33 33 -6.66 33 -7 33 C-7.35920865 22.22374063 -5.39615426 12.18846278 -2 2 C-3.98 2 -5.96 2 -8 2 C-8 1.67 -8 1.34 -8 1 C-1.125 0 -1.125 0 0 0 Z " fill="#D94550" transform="translate(780,117)"/>
<path d="M0 0 C0.66 0 1.32 0 2 0 C0.96998273 12.14497973 -1.43043184 23.35121842 -5 35 C-6.20148487 30.91889074 -5.69292632 27.39280151 -5.0625 23.25 C-4.96259766 22.55261719 -4.86269531 21.85523437 -4.75976562 21.13671875 C-4.51334127 19.42348274 -4.25759045 17.71159275 -4 16 C-3.34 16 -2.68 16 -2 16 C-1.34 10.72 -0.68 5.44 0 0 Z " fill="#E24D4B" transform="translate(577,0)"/>
<path d="M0 0 C0.66 0.33 1.32 0.66 2 1 C0.08477773 5.11772788 -1.93025484 8.63318273 -5 12 C-5.66 12 -6.32 12 -7 12 C-7.66 13.32 -8.32 14.64 -9 16 C-9.66 16 -10.32 16 -11 16 C-11.66 17.32 -12.32 18.64 -13 20 C-13.66 19.67 -14.32 19.34 -15 19 C-15 17 -15 17 -13.4375 15.375 C-12.633125 14.59125 -11.82875 13.8075 -11 13 C-7.18983389 8.78318043 -3.49942799 4.47926782 0 0 Z " fill="#E8090A" transform="translate(54,53)"/>
<path d="M0 0 C1.81242052 -0.02687279 3.62495233 -0.04633715 5.4375 -0.0625 C6.44683594 -0.07410156 7.45617187 -0.08570313 8.49609375 -0.09765625 C11 0 11 0 12 1 C12.1022003 10.79078895 9.23716386 20.54147932 7 30 C6.67 30 6.34 30 6 30 C5.78774988 23.42024642 6.26699897 17.37541983 8 11 C8.33 10.67 8.66 10.34 9 10 C9.23075082 8.65252916 9.41153063 7.29622435 9.5625 5.9375 C9.706875 4.638125 9.85125 3.33875 10 2 C6.7 1.67 3.4 1.34 0 1 C0 0.67 0 0.34 0 0 Z " fill="#E5544F" transform="translate(505,227)"/>
<path d="M0 0 C0.66902344 0.19335938 1.33804688 0.38671875 2.02734375 0.5859375 C10.94879005 3.00490683 19.83056238 4.07653768 29 5 C29 5.33 29 5.66 29 6 C6.69510153 8.04784428 6.69510153 8.04784428 1.23828125 3.546875 C0 2 0 2 0 0 Z " fill="#DC5D61" transform="translate(687,224)"/>
<path d="M0 0 C1.07174763 3.65188082 0.76411467 6.26432828 0 10 C0.66 10.33 1.32 10.66 2 11 C-0.05233685 13.2477975 -1.00667261 14.0022242 -4 15 C-4.0825 16.11375 -4.165 17.2275 -4.25 18.375 C-5 22 -5 22 -7.0625 23.4375 C-7.701875 23.623125 -8.34125 23.80875 -9 24 C-8.39502752 20.55349013 -7.5144919 17.48553403 -6.1875 14.25 C-5.83558594 13.39148438 -5.48367188 12.53296875 -5.12109375 11.6484375 C-3.46723624 7.74141523 -1.75418235 3.86293347 0 0 Z " fill="#E0646E" transform="translate(596,105)"/>
<path d="M0 0 C0.66 0 1.32 0 2 0 C1.72908125 3.25102503 1.38983209 4.64560719 -1.0625 6.875 C-2.031875 7.57625 -3.00125 8.2775 -4 9 C-6.06068596 10.81967006 -8.0981134 12.6630719 -10.1328125 14.51171875 C-12 16 -12 16 -15 17 C-13.63757574 13.93286756 -12.10300295 11.88159707 -9.6875 9.5625 C-9.07003906 8.96308594 -8.45257812 8.36367188 -7.81640625 7.74609375 C-7.21699219 7.16988281 -6.61757813 6.59367187 -6 6 C-5.03922506 5.0441145 -4.08054344 4.08611513 -3.125 3.125 C-2.08333333 2.08333333 -1.04166667 1.04166667 0 0 Z " fill="#DD5359" transform="translate(642,44)"/>
<path d="M0 0 C0.66 0.33 1.32 0.66 2 1 C0.87723429 8.05909078 -0.37563401 15.03843148 -2 22 C-4.17881794 18.73177309 -5.09151418 15.76372695 -6 12 C-5.34 12 -4.68 12 -4 12 C-4 11.01 -4 10.02 -4 9 C-3.34 8.67 -2.68 8.34 -2 8 C-1.62599214 5.67284 -1.29235267 3.33882138 -1 1 C-0.67 0.67 -0.34 0.34 0 0 Z " fill="#DF373E" transform="translate(856,37)"/>
<path d="M0 0 C0.99 0.33 1.98 0.66 3 1 C1.75 2.5 1.75 2.5 0 4 C-1.32 4 -2.64 4 -4 4 C-4.144375 4.763125 -4.28875 5.52625 -4.4375 6.3125 C-6.58052574 9.99850427 -8.8336401 10.19063932 -12.80078125 11.30859375 C-15.30988886 12.09742509 -17.06100218 13.22961068 -19 15 C-19.66 14.67 -20.32 14.34 -21 14 C-17.11792715 10.76863651 -13.06812022 8.01172829 -8.8125 5.3125 C-8.18408203 4.90966797 -7.55566406 4.50683594 -6.90820312 4.09179688 C-2.30399373 1.15199686 -2.30399373 1.15199686 0 0 Z " fill="#E0555C" transform="translate(670,25)"/>
<path d="M0 0 C1.00796724 3.16069729 0.97083624 5.33511958 0.25 8.5625 C0.01023437 9.70912109 0.01023437 9.70912109 -0.234375 10.87890625 C-1.12937634 13.35842527 -1.85333971 14.46598208 -4 16 C-6.41015625 16.36328125 -6.41015625 16.36328125 -9.0625 16.3125 C-9.94035156 16.30863281 -10.81820313 16.30476563 -11.72265625 16.30078125 C-14 16 -14 16 -16 14 C-13.35541621 12.67770811 -11.32238699 12.90322806 -8.375 12.9375 C-6.87066406 12.95103516 -6.87066406 12.95103516 -5.3359375 12.96484375 C-4.56507813 12.97644531 -3.79421875 12.98804688 -3 13 C-3 11.02 -3 9.04 -3 7 C-2.34 7 -1.68 7 -1 7 C-0.67 4.69 -0.34 2.38 0 0 Z " fill="#E42F2F" transform="translate(276,44)"/>
<path d="M0 0 C0.66 0 1.32 0 2 0 C2 1.32 2 2.64 2 4 C2.66 4.33 3.32 4.66 4 5 C4.66666667 7.33333333 5.33333333 9.66666667 6 12 C6.66 12.33 7.32 12.66 8 13 C8.63385922 15.04243528 9.01826504 17.09132519 9.4375 19.1875 C9.623125 19.785625 9.80875 20.38375 10 21 C10.66 21.33 11.32 21.66 12 22 C12.40729228 24.32156597 12.74438677 26.6568787 13 29 C10.00824184 27.50412092 9.59626604 25.2754796 8.25 22.25 C7.72792969 21.08339844 7.20585937 19.91679687 6.66796875 18.71484375 C6.39645996 18.10495605 6.12495117 17.49506836 5.84521484 16.86669922 C5.00157466 15.00347771 4.12629386 13.15884792 3.23828125 11.31640625 C2.68527344 10.16011719 2.13226563 9.00382813 1.5625 7.8125 C1.04816406 6.74644531 0.53382812 5.68039063 0.00390625 4.58203125 C-0.32738281 3.72996094 -0.65867188 2.87789062 -1 2 C-0.67 1.34 -0.34 0.68 0 0 Z " fill="#E55554" transform="translate(1,212)"/>
<path d="M0 0 C0.33 0.66 0.66 1.32 1 2 C0.67 2.99 0.34 3.98 0 5 C1.32 5 2.64 5 4 5 C4 5.99 4 6.98 4 8 C5.65 8.33 7.3 8.66 9 9 C9 9.66 9 10.32 9 11 C9.66 11 10.32 11 11 11 C11.33 11.66 11.66 12.32 12 13 C14.01669827 14.13350534 14.01669827 14.13350534 16 15 C15.01 15.33 14.02 15.66 13 16 C10.30078125 14.63671875 10.30078125 14.63671875 7.3125 12.6875 C6.31863281 12.05199219 5.32476562 11.41648437 4.30078125 10.76171875 C3.54152344 10.18035156 2.78226562 9.59898437 2 9 C2 8.34 2 7.68 2 7 C1.38125 6.7525 0.7625 6.505 0.125 6.25 C-2.35068687 4.79371361 -2.95125002 3.62187494 -4 1 C-2.68 0.67 -1.36 0.34 0 0 Z " fill="#E83B3E" transform="translate(331,268)"/>
<path d="M0 0 C1.32 0.33 2.64 0.66 4 1 C3.43152344 1.44988281 2.86304687 1.89976563 2.27734375 2.36328125 C-3.91503413 7.52187318 -8.01122084 13.02284289 -12 20 C-12.33 18.68 -12.66 17.36 -13 16 C-12.34 16 -11.68 16 -11 16 C-10.87625 15.46375 -10.7525 14.9275 -10.625 14.375 C-10.41875 13.59125 -10.2125 12.8075 -10 12 C-9.731875 10.948125 -9.46375 9.89625 -9.1875 8.8125 C-8 6 -8 6 -5.875 5.125 C-5.25625 5.08375 -4.6375 5.0425 -4 5 C-4 4.34 -4 3.68 -4 3 C-3.01 3 -2.02 3 -1 3 C-0.67 2.01 -0.34 1.02 0 0 Z " fill="#E54244" transform="translate(107,88)"/>
<path d="M0 0 C0.66 0.66 1.32 1.32 2 2 C1.95166016 4.43017578 1.95166016 4.43017578 1.5390625 7.4453125 C1.39726563 8.52167969 1.25546875 9.59804688 1.109375 10.70703125 C0.94953125 11.83496094 0.7896875 12.96289062 0.625 14.125 C0.39683594 15.82849609 0.39683594 15.82849609 0.1640625 17.56640625 C-0.21411398 20.37909383 -0.60254091 23.18998318 -1 26 C-1.33 26 -1.66 26 -2 26 C-2 18.74 -2 11.48 -2 4 C-1.34 4 -0.68 4 0 4 C0 2.68 0 1.36 0 0 Z " fill="#E3636B" transform="translate(795,260)"/>
<path d="M0 0 C3.56330162 1.45985485 5.32184716 3.32103963 7.625 6.375 C8.51058594 7.53128906 8.51058594 7.53128906 9.4140625 8.7109375 C10.83484761 10.76162734 11.9527764 12.74222435 13 15 C13.33 15.66 13.66 16.32 14 17 C10.01362578 15.44923657 7.97330922 12.9059317 5.3125 9.625 C4.13107422 8.19027344 4.13107422 8.19027344 2.92578125 6.7265625 C1.22486632 4.31837057 0.40109673 2.86886137 0 0 Z " fill="#E23031" transform="translate(17,245)"/>
<path d="M0 0 C0.99 0 1.98 0 3 0 C2.3622098 7.52592433 0.80110167 14.67098882 -1 22 C-1.33 22 -1.66 22 -2 22 C-2.02686553 20.02090602 -2.04633375 18.04171029 -2.0625 16.0625 C-2.07410156 14.96035156 -2.08570313 13.85820312 -2.09765625 12.72265625 C-2 10 -2 10 -1 9 C-0.76807135 7.48530552 -0.58784762 5.96245438 -0.4375 4.4375 C-0.35371094 3.61121094 -0.26992187 2.78492188 -0.18359375 1.93359375 C-0.12300781 1.29550781 -0.06242188 0.65742188 0 0 Z " fill="#EA4948" transform="translate(197,128)"/>
<path d="M0 0 C0.99 0.495 0.99 0.495 2 1 C2 1.66 2 2.32 2 3 C2.99 3.33 3.98 3.66 5 4 C6.66666667 5.66666667 8.33333333 7.33333333 10 9 C12.28359387 10.75186307 14.62539526 12.3703693 17 14 C16.67 14.66 16.34 15.32 16 16 C13.125 15.3125 13.125 15.3125 10 14 C9.29788106 12.34795544 8.63028587 10.68076231 8 9 C6.33927151 8.31867549 4.672233 7.65257873 3 7 C0 2.86206897 0 2.86206897 0 0 Z " fill="#E64343" transform="translate(380,207)"/>
<path d="M0 0 C-0.639375 0.495 -1.27875 0.99 -1.9375 1.5 C-6.0713508 4.87457208 -10.02939246 8.43596883 -14 12 C-14.33 10.68 -14.66 9.36 -15 8 C-14.34 8 -13.68 8 -13 8 C-13 7.34 -13 6.68 -13 6 C-12.01 5.67 -11.02 5.34 -10 5 C-9.6278958 3.67696283 -9.29369827 2.34262065 -9 1 C-6.04335481 -0.4783226 -3.25770263 -0.06032783 0 0 Z " fill="#E0565E" transform="translate(706,75)"/>
<path d="M0 0 C0 0.33 0 0.66 0 1 C-0.65484375 1.0501123 -1.3096875 1.10022461 -1.984375 1.15185547 C-4.9901765 1.38588768 -7.99504335 1.63036805 -11 1.875 C-12.02996094 1.95363281 -13.05992187 2.03226563 -14.12109375 2.11328125 C-18.69644036 2.49213161 -23.06615828 2.90918735 -27.5 4.1328125 C-30.86680319 4.96699811 -31.87087756 4.97356194 -35 4 C-34.34 4 -33.68 4 -33 4 C-33 3.34 -33 2.68 -33 2 C-21.9252571 0.33059057 -11.1952557 -0.24939926 0 0 Z " fill="#C71516" transform="translate(193,59)"/>
<path d="M0 0 C-3.14573677 2.09715785 -5.01456251 2.52004559 -8.6875 3.125 C-9.68136719 3.29257813 -10.67523438 3.46015625 -11.69921875 3.6328125 C-12.45847656 3.75398437 -13.21773437 3.87515625 -14 4 C-14 4.66 -14 5.32 -14 6 C-18.455 6.495 -18.455 6.495 -23 7 C-19.55595448 4.01281766 -15.76659144 2.65010476 -11.5 1.25 C-10.83613281 1.01667969 -10.17226562 0.78335937 -9.48828125 0.54296875 C-6.01895933 -0.61347189 -3.46925407 -1.45142262 0 0 Z " fill="#E0534E" transform="translate(134,9)"/>
<path d="M0 0 C6.75 -0.125 6.75 -0.125 9 1 C9 1.99 9 2.98 9 4 C9.763125 3.95875 10.52625 3.9175 11.3125 3.875 C14 4 14 4 17 6 C17 6.66 17 7.32 17 8 C12.76677156 7.37954537 9.47709705 5.89476441 5.6875 3.9375 C4.61886719 3.38964844 3.55023438 2.84179688 2.44921875 2.27734375 C1.64097656 1.85582031 0.83273438 1.43429687 0 1 C0 0.67 0 0.34 0 0 Z " fill="#E53331" transform="translate(49,275)"/>
<path d="M0 0 C2.97 0 5.94 0 9 0 C5.78379515 2.14413657 2.46863154 3.66081546 -1.0625 5.1875 C-1.69994141 5.47302734 -2.33738281 5.75855469 -2.99414062 6.05273438 C-4.63709898 6.76427903 -6.31706973 7.38897327 -8 8 C-8.66 7.67 -9.32 7.34 -10 7 C-8.6875 5.5 -8.6875 5.5 -7 4 C-6.01 4 -5.02 4 -4 4 C-4 3.34 -4 2.68 -4 2 C-2.68 2 -1.36 2 0 2 C0 1.34 0 0.68 0 0 Z " fill="#DC5259" transform="translate(725,61)"/>
<path d="M0 0 C2.36425667 1.93439182 3.02125626 3.06943712 3.9375 6.0625 C4.67632078 9.10440386 4.67632078 9.10440386 7 10.125 C7.99 10.558125 7.99 10.558125 9 11 C10.25 13.125 10.25 13.125 11 15 C10.01 15 9.02 15 8 15 C7.34 13.68 6.68 12.36 6 11 C5.01 11 4.02 11 3 11 C3 10.01 3 9.02 3 8 C2.34 8 1.68 8 1 8 C0.67 5.36 0.34 2.72 0 0 Z " fill="#DC5F65" transform="translate(662,200)"/>
<path d="M0 0 C0.66 0 1.32 0 2 0 C3.25664978 2.90600261 4 4.79604584 4 8 C4.66 8 5.32 8 6 8 C7.4606285 10.64738916 8 11.89448334 8 15 C8.66 15.33 9.32 15.66 10 16 C9.34 16.99 8.68 17.98 8 19 C6.7692661 16.5385322 5.53905128 14.07683736 4.3125 11.61328125 C3.29367191 9.58472175 2.24626568 7.57050387 1.1875 5.5625 C0 3 0 3 0 0 Z " fill="#DB5961" transform="translate(583,221)"/>
<path d="M0 0 C4.62 0 9.24 0 14 0 C14 0.33 14 0.66 14 1 C11.79204578 1.48091058 9.583619 1.95965179 7.375 2.4375 C5.53035156 2.83775391 5.53035156 2.83775391 3.6484375 3.24609375 C0.43982928 3.90911451 -2.76447568 4.48729384 -6 5 C-5.67 4.01 -5.34 3.02 -5 2 C-3.35 2 -1.7 2 0 2 C0 1.34 0 0.68 0 0 Z " fill="#E23536" transform="translate(444,61)"/>
<path d="M0 0 C0.33 0.66 0.66 1.32 1 2 C0.34 2 -0.32 2 -1 2 C-1 2.66 -1 3.32 -1 4 C-1.99 4.495 -1.99 4.495 -3 5 C-3.6496875 6.2375 -3.6496875 6.2375 -4.3125 7.5 C-6 10 -6 10 -8.6875 10.8125 C-9.450625 10.874375 -10.21375 10.93625 -11 11 C-9.40128806 6.84334895 -6.38692539 3.8008925 -3 1 C-2.01 0.67 -1.02 0.34 0 0 Z " fill="#E63535" transform="translate(344,52)"/>
<path d="M0 0 C1.02879148 2.67485785 0.9802834 4.09266804 0.375 6.9375 C-1.20009528 10.44566675 -3.15290287 12.4525973 -6 15 C-6.33 14.34 -6.66 13.68 -7 13 C-6.34 13 -5.68 13 -5 13 C-4.9175 11.96875 -4.835 10.9375 -4.75 9.875 C-3.89746699 5.47024613 -2.65758511 3.51487063 0 0 Z " fill="#DC1D2A" transform="translate(612,78)"/>
<path d="M0 0 C0.33 0.66 0.66 1.32 1 2 C-0.60401254 5.20802508 -3.80337227 5.63001669 -7 7 C-7.33 7.66 -7.66 8.32 -8 9 C-8.66 9 -9.32 9 -10 9 C-10.33 9.99 -10.66 10.98 -11 12 C-12.65 12 -14.3 12 -16 12 C-13.17468922 9.02356795 -10.25371428 6.63725714 -6.875 4.3125 C-5.57175781 3.40951172 -5.57175781 3.40951172 -4.2421875 2.48828125 C-2 1 -2 1 0 0 Z " fill="#EB6B6A" transform="translate(88,27)"/>
<path d="M0 0 C0.33 0 0.66 0 1 0 C1 5.61 1 11.22 1 17 C0.01 17.33 -0.98 17.66 -2 18 C-1.85805236 15.93722893 -1.71127784 13.87478969 -1.5625 11.8125 C-1.48128906 10.66394531 -1.40007812 9.51539063 -1.31640625 8.33203125 C-1.04596188 5.48401829 -0.62478253 2.78789518 0 0 Z " fill="#E42E2E" transform="translate(288,150)"/>
<path d="M0 0 C1.1171875 3.71875 1.1171875 3.71875 0.0625 6.25 C-0.288125 6.8275 -0.63875 7.405 -1 8 C-1.66 8 -2.32 8 -3 8 C-3 9.65 -3 11.3 -3 13 C-3.99 13 -4.98 13 -6 13 C-6.33 14.98 -6.66 16.96 -7 19 C-7.66 18.67 -8.32 18.34 -9 18 C-7.65072455 13.46152802 -5.80840652 9.68067754 -3.375 5.625 C-2.74335938 4.56539063 -2.11171875 3.50578125 -1.4609375 2.4140625 C-0.73777344 1.21910156 -0.73777344 1.21910156 0 0 Z " fill="#E45051" transform="translate(26,88)"/>
<path d="M0 0 C-0.33 0.66 -0.66 1.32 -1 2 C-4.28519475 3.09506492 -6.73663415 3.09960608 -10.1875 3.0625 C-11.81751953 3.04896484 -11.81751953 3.04896484 -13.48046875 3.03515625 C-14.31191406 3.02355469 -15.14335937 3.01195312 -16 3 C-16 2.34 -16 1.68 -16 1 C-10.63904667 -0.12862175 -5.44693314 -0.09688221 0 0 Z " fill="#E64749" transform="translate(459,0)"/>
<path d="M0 0 C1.32 0 2.64 0 4 0 C3.01 2.97 2.02 5.94 1 9 C0.34 9 -0.32 9 -1 9 C-1.33 6.69 -1.66 4.38 -2 2 C-1.34 2 -0.68 2 0 2 C0 1.34 0 0.68 0 0 Z " fill="#F20D0D" transform="translate(212,279)"/>
<path d="M0 0 C0.66 0.33 1.32 0.66 2 1 C1.030625 1.268125 0.06125 1.53625 -0.9375 1.8125 C-1.948125 2.204375 -2.95875 2.59625 -4 3 C-4.33 3.99 -4.66 4.98 -5 6 C-6.77734375 6.765625 -6.77734375 6.765625 -8.9375 7.25 C-9.64777344 7.42015625 -10.35804688 7.5903125 -11.08984375 7.765625 C-13 8 -13 8 -15 7 C-13.06374902 6.01836578 -11.12595461 5.03977546 -9.1875 4.0625 C-8.10855469 3.51722656 -7.02960937 2.97195312 -5.91796875 2.41015625 C-3 1 -3 1 0 0 Z " fill="#DF676D" transform="translate(690,15)"/>
<path d="M0 0 C6.93 0 13.86 0 21 0 C21 0.33 21 0.66 21 1 C14.73 1 8.46 1 2 1 C2.33 2.65 2.66 4.3 3 6 C2.34 6.66 1.68 7.32 1 8 C0.67 5.36 0.34 2.72 0 0 Z " fill="#E61416" transform="translate(75,171)"/>
<path d="M0 0 C-2.6210121 1.19706817 -5.24614696 2.38288646 -7.875 3.5625 C-8.62136719 3.90474609 -9.36773437 4.24699219 -10.13671875 4.59960938 C-12.06549332 5.45973857 -14.0311033 6.23616798 -16 7 C-16.66 6.67 -17.32 6.34 -18 6 C-17.67 5.34 -17.34 4.68 -17 4 C-14.6859378 3.26924352 -12.35171131 2.59861742 -10 2 C-10 1.34 -10 0.68 -10 0 C-3.375 -1.125 -3.375 -1.125 0 0 Z " fill="#E45852" transform="translate(438,67)"/>
<path d="M0 0 C0 1.32 0 2.64 0 4 C-4.95 3.67 -9.9 3.34 -15 3 C-15 2.67 -15 2.34 -15 2 C-13.43883181 1.66048381 -11.87598662 1.32867456 -10.3125 1 C-9.44238281 0.814375 -8.57226562 0.62875 -7.67578125 0.4375 C-5.06287036 0.01027953 -2.64186962 -0.07616201 0 0 Z " fill="#E05660" transform="translate(744,0)"/>
<path d="M0 0 C0.33 0 0.66 0 1 0 C0.85904936 1.6254308 0.71207913 3.25034051 0.5625 4.875 C0.48128906 5.77992187 0.40007812 6.68484375 0.31640625 7.6171875 C0 10 0 10 -1 12 C-1.66 12 -2.32 12 -3 12 C-3.33 13.98 -3.66 15.96 -4 18 C-4.66 18 -5.32 18 -6 18 C-4.23536928 11.89262558 -2.30442525 5.92566493 0 0 Z " fill="#E24043" transform="translate(300,112)"/>
<path d="M0 0 C4.50002257 1.68750846 8.72379627 3.82364184 13 6 C14.3328694 6.66759372 15.66607302 7.33452195 17 8 C11.16070536 7.47863441 6.32582176 6.52275768 1 4 C0.27734375 1.89453125 0.27734375 1.89453125 0 0 Z " fill="#E75454" transform="translate(101,218)"/>
<path d="M0 0 C1.23104155 3.68400584 0.90767252 6.91474976 0.5625 10.75 C0.46066406 11.92046875 0.35882813 13.0909375 0.25390625 14.296875 C0.17011719 15.18890625 0.08632813 16.0809375 0 17 C-0.99 17 -1.98 17 -3 17 C-2.54775239 11.08507728 -1.8417395 5.64800112 0 0 Z " fill="#EC6762" transform="translate(3,140)"/>
<path d="M0 0 C-6.20918975 3.24571282 -12.05829437 3.66944259 -19 4 C-15.91433716 1.94289144 -13.63014688 1.21653907 -10.0625 0.3125 C-8.50208984 -0.09548828 -8.50208984 -0.09548828 -6.91015625 -0.51171875 C-4.1294044 -0.97828785 -2.61519118 -0.93894816 0 0 Z " fill="#E34846" transform="translate(438,4)"/>
<path d="M0 0 C1.81242052 -0.02687279 3.62495233 -0.04633715 5.4375 -0.0625 C6.44683594 -0.07410156 7.45617187 -0.08570313 8.49609375 -0.09765625 C11 0 11 0 12 1 C11.91015699 2.85772162 11.75388139 4.71247985 11.5625 6.5625 C11.46066406 7.57441406 11.35882812 8.58632812 11.25390625 9.62890625 C11.17011719 10.41136719 11.08632813 11.19382813 11 12 C10.67 12 10.34 12 10 12 C10 8.7 10 5.4 10 2 C6.7 1.67 3.4 1.34 0 1 C0 0.67 0 0.34 0 0 Z " fill="#EA928B" transform="translate(505,227)"/>
<path d="M0 0 C6.93 0.495 6.93 0.495 14 1 C14 1.66 14 2.32 14 3 C17.3 3 20.6 3 24 3 C24 3.33 24 3.66 24 4 C22.02090602 4.02686553 20.04171029 4.04633375 18.0625 4.0625 C16.96035156 4.07410156 15.85820313 4.08570313 14.72265625 4.09765625 C12 4 12 4 11 3 C9.15108054 2.76636119 7.29511969 2.58696365 5.4375 2.4375 C4.42558594 2.35371094 3.41367188 2.26992187 2.37109375 2.18359375 C1.19740234 2.09271484 1.19740234 2.09271484 0 2 C0 1.34 0 0.68 0 0 Z " fill="#DF1B1C" transform="translate(112,225)"/>
<path d="M0 0 C0.33 0 0.66 0 1 0 C1.3457886 5.64788053 0.56064053 9.07569129 -2 14 C-2.99 14.495 -2.99 14.495 -4 15 C-2.07289294 4.44191344 -2.07289294 4.44191344 0 0 Z " fill="#E76662" transform="translate(293,131)"/>
<path d="M0 0 C1.2380014 3.57644848 0.74926071 6.33694766 0 10 C0.66 10.33 1.32 10.66 2 11 C0.625 12.5 0.625 12.5 -1 14 C-1.66 14 -2.32 14 -3 14 C-2.58846263 9.02906176 -2.20399168 4.55491614 0 0 Z " fill="#DF3E48" transform="translate(596,105)"/>
<path d="M0 0 C0.33 0.99 0.66 1.98 1 3 C0.00390625 4.82421875 0.00390625 4.82421875 -1.4375 6.6875 C-1.91058594 7.31011719 -2.38367188 7.93273437 -2.87109375 8.57421875 C-3.24363281 9.04472656 -3.61617187 9.51523438 -4 10 C-5.32 9.67 -6.64 9.34 -8 9 C-5.36 6.03 -2.72 3.06 0 0 Z " fill="#DE545C" transform="translate(621,67)"/>
<path d="M0 0 C6.30267439 0.36776168 11.33251843 1.16625922 17 4 C13.02623171 5.56393356 10.18622097 4.36145292 6.25 3.0625 C4.49429688 2.49208984 4.49429688 2.49208984 2.703125 1.91015625 C1.81109375 1.60980469 0.9190625 1.30945313 0 1 C0 0.67 0 0.34 0 0 Z " fill="#DE565A" transform="translate(641,281)"/>
<path d="M0 0 C1.31534494 3.65857532 0.65468309 6.08026481 -0.4375 9.75 C-0.86869141 11.22726563 -0.86869141 11.22726563 -1.30859375 12.734375 C-1.53675781 13.48203125 -1.76492187 14.2296875 -2 15 C-2.33 15 -2.66 15 -3 15 C-3 11.04 -3 7.08 -3 3 C-2.01 3 -1.02 3 0 3 C0 2.01 0 1.02 0 0 Z " fill="#EC6060" transform="translate(226,237)"/>
<path d="M0 0 C0.66 0 1.32 0 2 0 C1.25 4.75 1.25 4.75 -1 7 C-3.68839385 7.26991906 -6.29141936 7.08737357 -9 7 C-7.875 5.5 -7.875 5.5 -6 4 C-2.8125 3.8125 -2.8125 3.8125 0 4 C0 2.68 0 1.36 0 0 Z " fill="#E85858" transform="translate(564,53)"/>
<path d="M0 0 C4.66714289 1.83025211 8.18765077 3.6497537 12 7 C11.01 7.33 10.02 7.66 9 8 C9 7.34 9 6.68 9 6 C7.02 6 5.04 6 3 6 C2.67 4.68 2.34 3.36 2 2 C1.34 2 0.68 2 0 2 C0 1.34 0 0.68 0 0 Z " fill="#DD5F67" transform="translate(675,217)"/>
<path d="M0 0 C0.66 0 1.32 0 2 0 C4.84450614 3.71973879 5.3227506 6.37390802 5 11 C4.34 11 3.68 11 3 11 C2.49384702 9.73160474 1.99530901 8.46016898 1.5 7.1875 C1.2215625 6.47980469 0.943125 5.77210938 0.65625 5.04296875 C0 3 0 3 0 0 Z " fill="#E44B4C" transform="translate(290,216)"/>
<path d="M0 0 C2.97 0 5.94 0 9 0 C9 0.33 9 0.66 9 1 C-0.41002278 4.25968109 -0.41002278 4.25968109 -5 5 C-5 4.01 -5 3.02 -5 2 C-3.35 2 -1.7 2 0 2 C0 1.34 0 0.68 0 0 Z " fill="#E24242" transform="translate(136,69)"/>
<path d="M0 0 C0.91007812 0.10183594 1.82015625 0.20367187 2.7578125 0.30859375 C3.45648438 0.39238281 4.15515625 0.47617187 4.875 0.5625 C4.875 1.2225 4.875 1.8825 4.875 2.5625 C3.25036158 2.61645478 1.62521459 2.65527195 0 2.6875 C-0.90492188 2.71070313 -1.80984375 2.73390625 -2.7421875 2.7578125 C-5.125 2.5625 -5.125 2.5625 -7.125 0.5625 C-4.50184968 -0.74907516 -2.89466564 -0.33399988 0 0 Z " fill="#E7433F" transform="translate(267.125,57.4375)"/>
<path d="M0 0 C2.475 0.495 2.475 0.495 5 1 C5.33 1.99 5.66 2.98 6 4 C7.2375 4.495 7.2375 4.495 8.5 5 C9.325 5.33 10.15 5.66 11 6 C11.33 6.99 11.66 7.98 12 9 C6.03648545 7.72210402 3.51582826 4.66283606 0 0 Z " fill="#E45959" transform="translate(31,262)"/>
<path d="M0 0 C0.33 0 0.66 0 1 0 C0.5547115 5.27315333 -0.08373163 10.01770224 -2 15 C-3.06671952 11.79984144 -2.94845472 10.11455706 -2.5625 6.8125 C-2.46066406 5.91144531 -2.35882812 5.01039063 -2.25390625 4.08203125 C-2.17011719 3.39496094 -2.08632813 2.70789063 -2 2 C-1.34 2 -0.68 2 0 2 C0 1.34 0 0.68 0 0 Z " fill="#E0626D" transform="translate(805,229)"/>
<path d="M0 0 C-0.33 3.96 -0.66 7.92 -1 12 C-3.56687367 8.1496895 -2.83288724 6.41430237 -2 2 C-3.98 2 -5.96 2 -8 2 C-8 1.67 -8 1.34 -8 1 C-1.125 0 -1.125 0 0 0 Z " fill="#D6454D" transform="translate(780,117)"/>
<path d="M0 0 C-3.75 5.875 -3.75 5.875 -6 7 C-6.33 5.02 -6.66 3.04 -7 1 C-4.53721199 -0.231394 -2.7204945 -0.07159196 0 0 Z " fill="#E0484E" transform="translate(680,99)"/>
<path d="M0 0 C1.26950234 3.0006419 0.98068499 4.05184556 -0.1875 7.1875 C-2 10 -2 10 -4.11328125 10.67578125 C-4.73589844 10.78277344 -5.35851562 10.88976562 -6 11 C-5.18993474 9.35296694 -4.3768779 7.70740494 -3.5625 6.0625 C-3.11003906 5.14597656 -2.65757812 4.22945313 -2.19140625 3.28515625 C-1 1 -1 1 0 0 Z " fill="#E64040" transform="translate(314,87)"/>
<path d="M0 0 C0 0.66 0 1.32 0 2 C-2.64 2.66 -5.28 3.32 -8 4 C-8 4.66 -8 5.32 -8 6 C-9.65 6 -11.3 6 -13 6 C-9.43216717 1.83752837 -5.4396369 0 0 0 Z " fill="#E44C4C" transform="translate(110,17)"/>
<path d="M0 0 C0 0.66 0 1.32 0 2 C-4.4024732 5.65083143 -7.32822615 6.45374191 -13 6 C-10.87838666 3.87838666 -9.2266841 3.07013751 -6.5 1.875 C-5.7059375 1.52179687 -4.911875 1.16859375 -4.09375 0.8046875 C-2 0 -2 0 0 0 Z " fill="#E23636" transform="translate(403,13)"/>
<path d="M0 0 C2.475 0.495 2.475 0.495 5 1 C5 3.66666667 5 6.33333333 5 9 C1.7457985 6.16569547 0.4793247 4.31392226 0 0 Z " fill="#EA211F" transform="translate(305,245)"/>
<path d="M0 0 C2.64465038 3.1254959 3.84414715 6.08788267 5 10 C4.34 10.66 3.68 11.32 3 12 C0.58314288 7.77050005 -0.34833144 4.87664009 0 0 Z " fill="#E9514F" transform="translate(371,191)"/>
<path d="M0 0 C0.99 0 1.98 0 3 0 C1.7508258 3.45925163 0.32472205 6.14693203 -2 9 C0.31 9 2.62 9 5 9 C5 9.33 5 9.66 5 10 C2.36 10 -0.28 10 -3 10 C-3 8.35 -3 6.7 -3 5 C-2.34 4.67 -1.68 4.34 -1 4 C-0.34786708 1.97536745 -0.34786708 1.97536745 0 0 Z " fill="#DB4246" transform="translate(91,108)"/>
<path d="M0 0 C0 2.66053211 -0.19335496 4.49940039 -1 7 C-1.66 7.66 -2.32 8.32 -3 9 C-4.32 8.67 -5.64 8.34 -7 8 C-4.69 5.36 -2.38 2.72 0 0 Z " fill="#E93F3C" transform="translate(332,63)"/>
<path d="M0 0 C0.99 0.33 1.98 0.66 3 1 C0.19195732 3.96404505 -2.18315774 6.44499019 -6 8 C-4.55746343 4.63408134 -2.66735273 2.48952921 0 0 Z " fill="#E04451" transform="translate(633,53)"/>
<path d="M0 0 C-2.88087546 2.40072955 -5.56404834 4.47291037 -9 6 C-8.625 3.5625 -8.625 3.5625 -8 1 C-5.29120665 -0.35439668 -2.99066732 -0.06501451 0 0 Z " fill="#E53E42" transform="translate(419,75)"/>
<path d="M0 0 C0.33 0 0.66 0 1 0 C0.5547115 5.27315333 -0.08373163 10.01770224 -2 15 C-3.00322648 11.99032056 -3.03098357 10.5759723 -2.6875 7.5 C-2.60886719 6.7265625 -2.53023437 5.953125 -2.44921875 5.15625 C-2 3 -2 3 0 0 Z " fill="#E65A5C" transform="translate(569,38)"/>
<path d="M0 0 C0.33 0 0.66 0 1 0 C1.69640673 2.12209776 2.38188357 4.24778527 3.0625 6.375 C3.44535156 7.55835938 3.82820313 8.74171875 4.22265625 9.9609375 C5 13 5 13 4 15 C1.27601798 12.27601798 0.10595431 9.78466796 -0.125 5.89453125 C-0.125 3.92924576 -0.0665816 1.96415732 0 0 Z " fill="#DF4848" transform="translate(78,178)"/>
<path d="M0 0 C0.66 0.33 1.32 0.66 2 1 C1.34 4.96 0.68 8.92 0 13 C-0.33 13 -0.66 13 -1 13 C-1.02686553 11.02090602 -1.04633375 9.04171029 -1.0625 7.0625 C-1.07410156 5.96035156 -1.08570313 4.85820313 -1.09765625 3.72265625 C-1 1 -1 1 0 0 Z " fill="#E25D64" transform="translate(856,37)"/>
<path d="M0 0 C0.66 0.33 1.32 0.66 2 1 C1.67 2.32 1.34 3.64 1 5 C-0.65 5 -2.3 5 -4 5 C-4.33 4.01 -4.66 3.02 -5 2 C-2.625 0.9375 -2.625 0.9375 0 0 Z " fill="#E0272F" transform="translate(677,22)"/>
<path d="M0 0 C0.99 0 1.98 0 3 0 C4.35384615 6.4 4.35384615 6.4 2.5625 9.4375 C2.046875 9.953125 1.53125 10.46875 1 11 C1.01160156 10.37351563 1.02320313 9.74703125 1.03515625 9.1015625 C1.04417969 8.28429687 1.05320313 7.46703125 1.0625 6.625 C1.07990234 5.40683594 1.07990234 5.40683594 1.09765625 4.1640625 C1.14466334 1.95062858 1.14466334 1.95062858 0 0 Z " fill="#E33030" transform="translate(224,229)"/>
<path d="M0 0 C0 3.44360632 -0.79591532 4.74795392 -2.5 7.6875 C-2.9640625 8.49574219 -3.428125 9.30398437 -3.90625 10.13671875 C-4.44765625 11.05904297 -4.44765625 11.05904297 -5 12 C-5.99 11.67 -6.98 11.34 -8 11 C-8 9 -8 9 -6.25 7.1875 C-5.13625 6.1046875 -5.13625 6.1046875 -4 5 C-2.64843325 3.34808509 -1.31037934 1.68477344 0 0 Z " fill="#EA5E60" transform="translate(47,61)"/>
<path d="M0 0 C0.33 1.32 0.66 2.64 1 4 C-2 6 -2 6 -5 6 C-5.33 6.66 -5.66 7.32 -6 8 C-6 7.01 -6 6.02 -6 5 C-5.34 5 -4.68 5 -4 5 C-3.71125 4.360625 -3.4225 3.72125 -3.125 3.0625 C-2 1 -2 1 0 0 Z " fill="#ED0505" transform="translate(84,31)"/>
<path d="M0 0 C0.99 0 1.98 0 3 0 C2.71682074 1.60568666 2.42312209 3.20952047 2.125 4.8125 C1.96257813 5.70582031 1.80015625 6.59914063 1.6328125 7.51953125 C1 10 1 10 -1 13 C-0.67 8.71 -0.34 4.42 0 0 Z " fill="#E77485" transform="translate(864,6)"/>
<path d="M0 0 C3.3 0.33 6.6 0.66 10 1 C10 1.99 10 2.98 10 4 C5.38308839 3.47535095 3.90012114 2.92509086 0 0 Z " fill="#E75650" transform="translate(346,284)"/>
<path d="M0 0 C0.99 0.33 1.98 0.66 3 1 C3.25 8.625 3.25 8.625 1 12 C0.67 8.04 0.34 4.08 0 0 Z " fill="#E52223" transform="translate(508,252)"/>
<path d="M0 0 C0.33 0 0.66 0 1 0 C0.88490339 1.41750563 0.75746342 2.83401169 0.625 4.25 C0.55539062 5.03890625 0.48578125 5.8278125 0.4140625 6.640625 C-0.01507113 9.085877 -0.78600638 10.84836903 -2 13 C-2.05447047 11.58376784 -2.09300508 10.16691809 -2.125 8.75 C-2.14820313 7.96109375 -2.17140625 7.1721875 -2.1953125 6.359375 C-1.9828378 3.79268059 -1.28654105 2.2083933 0 0 Z " fill="#DD5562" transform="translate(775,137)"/>
<path d="M0 0 C0.625 1.875 0.625 1.875 1 4 C0.34 4.66 -0.32 5.32 -1 6 C-1.99 6 -2.98 6 -4 6 C-4.33 5.01 -4.66 4.02 -5 3 C-2.25 0 -2.25 0 0 0 Z " fill="#E32F37" transform="translate(708,69)"/>
<path d="M0 0 C2.31 0 4.62 0 7 0 C7.33 0.99 7.66 1.98 8 3 C5.39417629 3.93065133 4.35801776 4.14917407 1.75 3.0625 C1.1725 2.711875 0.595 2.36125 0 2 C0 1.34 0 0.68 0 0 Z " fill="#DF464B" transform="translate(629,275)"/>
<path d="M0 0 C1.18771723 3.42943519 0.80226223 5.37784675 -0.4375 8.75 C-0.86869141 9.94882812 -0.86869141 9.94882812 -1.30859375 11.171875 C-1.65083984 12.07679688 -1.65083984 12.07679688 -2 13 C-2.33 13 -2.66 13 -3 13 C-3.31563182 7.73946963 -2.66590937 4.55426184 0 0 Z " fill="#DA1313" transform="translate(508,264)"/>
<path d="M0 0 C1.15957207 3.47871621 0.77456651 4.34219645 -0.4375 7.6875 C-0.72496094 8.49574219 -1.01242187 9.30398438 -1.30859375 10.13671875 C-1.65083984 11.05904297 -1.65083984 11.05904297 -2 12 C-2.33 12 -2.66 12 -3 12 C-3.08131463 10.56344146 -3.13933559 9.1255517 -3.1875 7.6875 C-3.22230469 6.88699219 -3.25710938 6.08648437 -3.29296875 5.26171875 C-2.93801608 2.52148416 -2.10633718 1.70828921 0 0 Z " fill="#D6585D" transform="translate(800,248)"/>
<path d="M0 0 C1.485 0.99 1.485 0.99 3 2 C2.67 4.31 2.34 6.62 2 9 C0.4375 7.3125 0.4375 7.3125 -1 5 C-0.6875 2.25 -0.6875 2.25 0 0 Z " fill="#F11918" transform="translate(98,215)"/>
<path d="M0 0 C2.25245881 2.68841859 3.88213958 4.64641875 5 8 C3.02 8.99 3.02 8.99 1 10 C0.67 6.7 0.34 3.4 0 0 Z " fill="#E63435" transform="translate(87,201)"/>
<path d="M0 0 C0.99 1.32 1.98 2.64 3 4 C2.67 4.66 2.34 5.32 2 6 C1.34 6 0.68 6 0 6 C-0.33 7.32 -0.66 8.64 -1 10 C-2.46726798 6.18510326 -1.43336419 3.70988378 0 0 Z " fill="#D94D58" transform="translate(586,130)"/>
<path d="M0 0 C0.66 0.99 1.32 1.98 2 3 C1.01 3.33 0.02 3.66 -1 4 C-1.33 5.65 -1.66 7.3 -2 9 C-3.32 9.33 -4.64 9.66 -6 10 C-4.34832443 6.4213696 -2.21713508 3.25179812 0 0 Z " fill="#EC5151" transform="translate(324,72)"/>
<path d="M0 0 C0.66 0 1.32 0 2 0 C1.14285714 8.57142857 1.14285714 8.57142857 -1 12 C-1.14285714 3.42857143 -1.14285714 3.42857143 0 0 Z " fill="#D83B45" transform="translate(860,20)"/>
<path d="M0 0 C0.66 0 1.32 0 2 0 C2 0.66 2 1.32 2 2 C2.66 2 3.32 2 4 2 C4.33 2.66 4.66 3.32 5 4 C7.01669827 5.13350534 7.01669827 5.13350534 9 6 C8.01 6.33 7.02 6.66 6 7 C4.17578125 6.00390625 4.17578125 6.00390625 2.3125 4.5625 C1.68988281 4.08941406 1.06726563 3.61632812 0.42578125 3.12890625 C-0.04472656 2.75636719 -0.51523437 2.38382812 -1 2 C-0.67 1.34 -0.34 0.68 0 0 Z " fill="#E23535" transform="translate(338,277)"/>
<path d="M0 0 C0.66 0 1.32 0 2 0 C1.88648483 1.81325551 1.75887039 3.62563357 1.625 5.4375 C1.55539062 6.44683594 1.48578125 7.45617187 1.4140625 8.49609375 C1.27742187 9.32238281 1.14078125 10.14867187 1 11 C0.01 11.495 0.01 11.495 -1 12 C-1.02687279 10.18757948 -1.04633715 8.37504767 -1.0625 6.5625 C-1.07410156 5.55316406 -1.08570313 4.54382813 -1.09765625 3.50390625 C-1 1 -1 1 0 0 Z " fill="#D82833" transform="translate(801,236)"/>
<path d="M0 0 C0.99 0.495 0.99 0.495 2 1 C2 1.66 2 2.32 2 3 C2.99 3.33 3.98 3.66 5 4 C6.1875 6.5625 6.1875 6.5625 7 9 C1.21538462 5.67692308 1.21538462 5.67692308 0.125 2.25 C0.08375 1.5075 0.0425 0.765 0 0 Z " fill="#E8575A" transform="translate(380,207)"/>
<path d="M0 0 C2.69504819 2.69504819 5 6.08360477 5 10 C4.34 10 3.68 10 3 10 C3 9.01 3 8.02 3 7 C2.01 7 1.02 7 0 7 C0 4.69 0 2.38 0 0 Z " fill="#D74D56" transform="translate(657,190)"/>
<path d="M0 0 C1.32 0.33 2.64 0.66 4 1 C2.47291037 4.43595166 0.40072955 7.11912454 -2 10 C-1.33333333 6.66666667 -0.66666667 3.33333333 0 0 Z " fill="#E34749" transform="translate(385,99)"/>
<path d="M0 0 C0.66 0.33 1.32 0.66 2 1 C1.375 3.375 1.375 3.375 0 6 C-3.125 7.3125 -3.125 7.3125 -6 8 C-4.02 5.36 -2.04 2.72 0 0 Z " fill="#EE5558" transform="translate(54,53)"/>
<path d="M0 0 C0.66 0.33 1.32 0.66 2 1 C0.625 2.5 0.625 2.5 -1 4 C-1.66 4 -2.32 4 -3 4 C-3 4.66 -3 5.32 -3 6 C-4.98 6.33 -6.96 6.66 -9 7 C-6.25604436 4.05278838 -3.61662784 1.80831392 0 0 Z " fill="#D02932" transform="translate(653,37)"/>
<path d="M0 0 C-0.33 0.66 -0.66 1.32 -1 2 C-3.50390625 2.6328125 -3.50390625 2.6328125 -6.5625 3.125 C-8.08037109 3.37636719 -8.08037109 3.37636719 -9.62890625 3.6328125 C-10.80259766 3.81457031 -10.80259766 3.81457031 -12 4 C-10.720327 1.44065399 -9.75798964 1.3010767 -7.125 0.3125 C-6.07699219 -0.09548828 -6.07699219 -0.09548828 -5.0078125 -0.51171875 C-3 -1 -3 -1 0 0 Z " fill="#E4757C" transform="translate(704,11)"/>
<path d="M0 0 C0.86625 0.4640625 0.86625 0.4640625 1.75 0.9375 C3.92954724 2.07743133 3.92954724 2.07743133 6.1875 2.4375 C6.785625 2.623125 7.38375 2.80875 8 3 C8.33 3.99 8.66 4.98 9 6 C5.32579134 5.69381595 4.21864487 5.24228216 1.6875 2.4375 C1.130625 1.633125 0.57375 0.82875 0 0 Z " fill="#E77076" transform="translate(604,256)"/>
<path d="M0 0 C0.33 0.66 0.66 1.32 1 2 C2.32 2 3.64 2 5 2 C3.25 5.875 3.25 5.875 1 7 C0.67 4.69 0.34 2.38 0 0 Z " fill="#E2575A" transform="translate(668,106)"/>
<path d="M0 0 C3.3 0 6.6 0 10 0 C10 0.33 10 0.66 10 1 C1.96428571 3.27678571 1.96428571 3.27678571 -2 2 C-1.34 2 -0.68 2 0 2 C0 1.34 0 0.68 0 0 Z " fill="#E33B3B" transform="translate(160,61)"/>
<path d="M0 0 C0.33 0.99 0.66 1.98 1 3 C-0.39789678 5.79579355 -2.2628997 6.59807058 -5 8 C-5.66 7.67 -6.32 7.34 -7 7 C-4.69 4.69 -2.38 2.38 0 0 Z " fill="#E95B56" transform="translate(349,45)"/>
<path d="M0 0 C2.31 0 4.62 0 7 0 C7 1.32 7 2.64 7 4 C4.97954558 3.39816251 2.97888961 2.72693904 1 2 C0.67 1.34 0.34 0.68 0 0 Z " fill="#E74546" transform="translate(49,275)"/>
<path d="M0 0 C0 0.66 0 1.32 0 2 C-0.66 2 -1.32 2 -2 2 C-2.33 2.99 -2.66 3.98 -3 5 C-4.65 5 -6.3 5 -8 5 C-3.16129032 0 -3.16129032 0 0 0 Z " fill="#E34646" transform="translate(80,34)"/>
<path d="M0 0 C0.66 0.33 1.32 0.66 2 1 C1.67 1.99 1.34 2.98 1 4 C-0.32 4 -1.64 4 -3 4 C-3 4.66 -3 5.32 -3 6 C-4.32 5.67 -5.64 5.34 -7 5 C-4.69 3.35 -2.38 1.7 0 0 Z " fill="#E8403F" transform="translate(370,29)"/>
<path d="M0 0 C1.32 0 2.64 0 4 0 C3.34 2.64 2.68 5.28 2 8 C1.67 8 1.34 8 1 8 C0.67 5.36 0.34 2.72 0 0 Z " fill="#F04A4C" transform="translate(212,279)"/>
<path d="M0 0 C4.67213115 1.47540984 4.67213115 1.47540984 6.25 4 C6.4975 4.66 6.745 5.32 7 6 C7.33 6.66 7.66 7.32 8 8 C3.79373966 6.49776416 2.26099979 3.71449966 0 0 Z " fill="#EF7879" transform="translate(23,254)"/>
<path d="M0 0 C0.33 1.32 0.66 2.64 1 4 C-0.9375 6.75 -0.9375 6.75 -3 9 C-3.66 8.67 -4.32 8.34 -5 8 C-3.35 5.36 -1.7 2.72 0 0 Z " fill="#E0606B" transform="translate(612,78)"/>
<path d="M0 0 C-2.8125 2.0625 -2.8125 2.0625 -6 4 C-6.99 3.67 -7.98 3.34 -9 3 C-8.01 2.67 -7.02 2.34 -6 2 C-6 1.34 -6 0.68 -6 0 C-2.25 -1.125 -2.25 -1.125 0 0 Z " fill="#E2686D" transform="translate(131,75)"/>
<path d="M0 0 C0.99 0 1.98 0 3 0 C2.67 1.65 2.34 3.3 2 5 C0.125 5.625 0.125 5.625 -2 6 C-2.66 5.34 -3.32 4.68 -4 4 C-2.68 4 -1.36 4 0 4 C0 2.68 0 1.36 0 0 Z " fill="#DC3239" transform="translate(713,65)"/>
<path d="M0 0 C0 0.66 0 1.32 0 2 C-4.455 2.495 -4.455 2.495 -9 3 C-5.92807025 0.26939578 -4.09590633 -0.34132553 0 0 Z " fill="#E34241" transform="translate(120,13)"/>
</svg>
